<svg xmlns="http://www.w3.org/2000/svg" width="1200" height="660" viewBox="0 0 1200 660">
  <defs>
    <!-- Glow for lines on hover / emphasis -->
    <filter id="lineGlow" x="-10%" y="-10%" width="120%" height="120%">
      <feGaussianBlur in="SourceGraphic" stdDeviation="2.5" result="blur"/>
      <feMerge>
        <feMergeNode in="blur"/>
        <feMergeNode in="SourceGraphic"/>
      </feMerge>
    </filter>
    <!-- Subtle drop shadow for panels -->
    <filter id="panelShadow" x="-2%" y="-2%" width="104%" height="106%">
      <feDropShadow dx="0" dy="2" stdDeviation="6" flood-color="#000000" flood-opacity="0.25"/>
    </filter>
    <!-- Title accent gradient -->
    <linearGradient id="accentGrad" x1="0" y1="0" x2="1" y2="0">
      <stop offset="0%" stop-color="#60a5fa"/>
      <stop offset="40%" stop-color="#34d399"/>
      <stop offset="70%" stop-color="#fbbf24"/>
      <stop offset="100%" stop-color="#f87171" stop-opacity="0"/>
    </linearGradient>
    <!-- Mirage zone fills per model -->
    <linearGradient id="mirageQ32" x1="0" y1="0" x2="0" y2="1">
      <stop offset="0%" stop-color="#34d399" stop-opacity="0.015"/>
      <stop offset="100%" stop-color="#34d399" stop-opacity="0.015"/>
    </linearGradient>
    <linearGradient id="mirageQ42" x1="0" y1="0" x2="0" y2="1">
      <stop offset="0%" stop-color="#f87171" stop-opacity="0.015"/>
      <stop offset="100%" stop-color="#f87171" stop-opacity="0.015"/>
    </linearGradient>
    <linearGradient id="mirageQ53" x1="0" y1="0" x2="0" y2="1">
      <stop offset="0%" stop-color="#38bdf8" stop-opacity="0.015"/>
      <stop offset="100%" stop-color="#38bdf8" stop-opacity="0.015"/>
    </linearGradient>
    <linearGradient id="mirageCR" x1="0" y1="0" x2="0" y2="1">
      <stop offset="0%" stop-color="#fbbf24" stop-opacity="0.12"/>
      <stop offset="100%" stop-color="#fbbf24" stop-opacity="0.04"/>
    </linearGradient>
    <!-- Dot marker template -->
    <circle id="dot" r="3.5"/>
  </defs>

  <style>
    text { font-family: 'Inter', -apple-system, BlinkMacSystemFont, 'Segoe UI', system-ui, sans-serif; }
  </style>

  <!-- ══════════════ BACKGROUND ══════════════ -->
  <rect width="1200" height="660" rx="8" fill="#0f1117"/>
  <rect x="0.5" y="0.5" width="1199" height="659" rx="8" fill="none" stroke="#1e293b" stroke-width="1"/>

  <!-- ══════════════ HEADER ══════════════ -->
  <text x="56" y="38" font-size="24" font-weight="700" fill="#f1f5f9" letter-spacing="-0.5">Exact Pareto Frontier</text>
  <rect x="56" y="46" width="140" height="2.5" rx="1.25" fill="url(#accentGrad)" opacity="0.7"/>
  <text x="56" y="63" font-size="12" font-weight="400" fill="#94a3b8" letter-spacing="0.15">Answers can reach 100% before the system remembers why — the mirage shelf</text>

  <!-- ══════════════ LEGEND (top right) ══════════════ -->
  <g transform="translate(720, 14)">
    <rect x="0" y="0" width="432" height="60" rx="6" fill="#161b22" stroke="#1e293b" stroke-width="1"/>

    <!-- Model colors -->
    <line x1="14" y1="16" x2="34" y2="16" stroke="#60a5fa" stroke-width="2.8" stroke-linecap="round"/>
    <text x="40" y="20" font-size="10" font-weight="600" fill="#60a5fa">M₃</text>

    <line x1="80" y1="16" x2="100" y2="16" stroke="#34d399" stroke-width="2.8" stroke-linecap="round"/>
    <text x="106" y="20" font-size="10" font-weight="600" fill="#34d399">Q₍₃,₂₎</text>

    <line x1="168" y1="16" x2="188" y2="16" stroke="#f87171" stroke-width="2.8" stroke-linecap="round"/>
    <text x="194" y="20" font-size="10" font-weight="600" fill="#f87171">Q₍₄,₂₎</text>

    <line x1="256" y1="16" x2="276" y2="16" stroke="#38bdf8" stroke-width="2.8" stroke-linecap="round"/>
    <text x="282" y="20" font-size="10" font-weight="600" fill="#38bdf8">Q₍₅,₃₎</text>

    <line x1="336" y1="16" x2="356" y2="16" stroke="#fbbf24" stroke-width="2.8" stroke-linecap="round"/>
    <text x="362" y="20" font-size="9.5" font-weight="600" fill="#fbbf24">causal_ref</text>

    <!-- Line style legend -->
    <line x1="14" y1="44" x2="42" y2="44" stroke="#94a3b8" stroke-width="2.5" stroke-linecap="round"/>
    <text x="48" y="48" font-size="9.5" font-weight="500" fill="#94a3b8">answer fidelity (solid)</text>

    <line x1="210" y1="44" x2="238" y2="44" stroke="#94a3b8" stroke-width="2" stroke-linecap="round" stroke-dasharray="6,4"/>
    <text x="244" y="48" font-size="9.5" font-weight="500" fill="#94a3b8">witness fidelity (dashed)</text>
  </g>

  <!-- ══════════════════════════════════════════════════════════════════════════════ -->
  <!-- LEFT PANEL: FORCED DECODING                                                  -->
  <!-- Panel card: x=40..590, chart: x=120..565, y=120..540                         -->
  <!-- ══════════════════════════════════════════════════════════════════════════════ -->
  <rect x="40" y="82" width="556" height="500" rx="10" fill="#1a1d27" filter="url(#panelShadow)"/>
  <rect x="40" y="82" width="556" height="500" rx="10" fill="none" stroke="#252a36" stroke-width="1"/>

  <!-- Panel title -->
  <text x="56" y="104" font-size="14" font-weight="700" fill="#e2e8f0">Forced decoding</text>
  <text x="56" y="120" font-size="10" font-weight="400" fill="#64748b">system must always give an answer</text>

  <!-- Y axis grid + labels (fidelity 0.0 to 1.0) -->
  <g font-size="9" font-weight="400" fill="#475569" text-anchor="end">
    <line x1="120" y1="540" x2="565" y2="540" stroke="#252a36" stroke-width="0.7"/>
    <text x="112" y="543">0.0</text>
    <line x1="120" y1="498" x2="565" y2="498" stroke="#252a36" stroke-width="0.5" stroke-dasharray="2,4"/>
    <text x="112" y="501" opacity="0.6">0.1</text>
    <line x1="120" y1="456" x2="565" y2="456" stroke="#252a36" stroke-width="0.5" stroke-dasharray="2,4"/>
    <text x="112" y="459" opacity="0.6">0.2</text>
    <line x1="120" y1="414" x2="565" y2="414" stroke="#252a36" stroke-width="0.5" stroke-dasharray="2,4"/>
    <text x="112" y="417" opacity="0.6">0.3</text>
    <line x1="120" y1="372" x2="565" y2="372" stroke="#252a36" stroke-width="0.5" stroke-dasharray="2,4"/>
    <text x="112" y="375" opacity="0.6">0.4</text>
    <line x1="120" y1="330" x2="565" y2="330" stroke="#252a36" stroke-width="0.5" stroke-dasharray="2,4"/>
    <text x="112" y="333">0.5</text>
    <line x1="120" y1="288" x2="565" y2="288" stroke="#252a36" stroke-width="0.5" stroke-dasharray="2,4"/>
    <text x="112" y="291" opacity="0.6">0.6</text>
    <line x1="120" y1="246" x2="565" y2="246" stroke="#252a36" stroke-width="0.5" stroke-dasharray="2,4"/>
    <text x="112" y="249" opacity="0.6">0.7</text>
    <line x1="120" y1="204" x2="565" y2="204" stroke="#252a36" stroke-width="0.5" stroke-dasharray="2,4"/>
    <text x="112" y="207">0.8</text>
    <line x1="120" y1="162" x2="565" y2="162" stroke="#252a36" stroke-width="0.5" stroke-dasharray="2,4"/>
    <text x="112" y="165" opacity="0.6">0.9</text>
    <line x1="120" y1="120" x2="565" y2="120" stroke="#252a36" stroke-width="0.7"/>
    <text x="112" y="123">1.0</text>
  </g>

  <!-- X axis grid + labels (budget 0-4) -->
  <g font-size="9" font-weight="400" fill="#475569" text-anchor="middle">
    <line x1="120.0" y1="120" x2="120.0" y2="540" stroke="#252a36" stroke-width="0.7"/>
    <text x="120.0" y="556">0</text>
    <line x1="231.2" y1="120" x2="231.2" y2="540" stroke="#252a36" stroke-width="0.5" stroke-dasharray="2,4"/>
    <text x="231.2" y="556">1</text>
    <line x1="342.5" y1="120" x2="342.5" y2="540" stroke="#252a36" stroke-width="0.5" stroke-dasharray="2,4"/>
    <text x="342.5" y="556">2</text>
    <line x1="453.8" y1="120" x2="453.8" y2="540" stroke="#252a36" stroke-width="0.5" stroke-dasharray="2,4"/>
    <text x="453.8" y="556">3</text>
    <line x1="565.0" y1="120" x2="565.0" y2="540" stroke="#252a36" stroke-width="0.7"/>
    <text x="565.0" y="556">4</text>
  </g>
  <text x="342.5" y="574" font-size="10" font-weight="500" fill="#64748b" text-anchor="middle">memory budget (bits)</text>

  <!-- Y axis label -->
  <text x="48" y="330" font-size="10" font-weight="500" fill="#64748b" text-anchor="middle" transform="rotate(-90 48 330)">fidelity</text>

  <!-- ═══ MIRAGE ZONE FILLS (where answer > witness) ═══ -->
  <!-- Q_(3,2) mirage fill -->
  <polygon points="120.0,204.4 231.2,160.7 342.5,125.0 453.8,120.0 453.8,120.0 342.5,139.3 231.2,185.9 120.0,258.6"
           fill="url(#mirageQ32)" stroke="none"/>
  <!-- Q_(4,2) mirage fill -->
  <polygon points="120.0,199.0 231.2,160.3 342.5,126.7 453.8,120.0 453.8,120.0 342.5,136.4 231.2,192.2 120.0,254.4"
           fill="url(#mirageQ42)" stroke="none"/>
  <!-- Q_(5,3) mirage fill -->
  <polygon points="120.0,160.3 231.2,142.3 342.5,125.9 453.8,120.0 565.0,120.0 565.0,120.0 453.8,127.6 342.5,141.0 231.2,201.5 120.0,268.3"
           fill="url(#mirageQ53)" stroke="none"/>
  <!-- causal_referee mirage fill (biggest gap — most visible) -->
  <polygon points="120.0,199.4 231.2,128.0 342.5,120.0 453.8,120.0 565.0,120.0 565.0,120.0 453.8,135.1 342.5,270.8 231.2,230.9 120.0,316.6"
           fill="url(#mirageCR)" stroke="none"/>

  <!-- ═══ DATA LINES — FORCED PANEL ═══ -->

  <!-- M₃ — answer (solid) and witness (dashed) are identical -->
  <polyline fill="none" stroke="#60a5fa" stroke-width="2.8" stroke-linecap="round" stroke-linejoin="round"
            points="120.0,212.0 231.2,162.8 342.5,128.4 453.8,120.0"/>
  <polyline fill="none" stroke="#60a5fa" stroke-width="1.8" stroke-linecap="round" stroke-linejoin="round" stroke-dasharray="6,4"
            points="120.0,212.0 231.2,162.8 342.5,128.4 453.8,120.0"/>

  <!-- Q_(3,2) — answer -->
  <polyline fill="none" stroke="#34d399" stroke-width="2.8" stroke-linecap="round" stroke-linejoin="round"
            points="120.0,204.4 231.2,160.7 342.5,125.0 453.8,120.0"/>
  <!-- Q_(3,2) — witness -->
  <polyline fill="none" stroke="#34d399" stroke-width="1.8" stroke-linecap="round" stroke-linejoin="round" stroke-dasharray="6,4"
            points="120.0,258.6 231.2,185.9 342.5,139.3 453.8,120.0"/>

  <!-- Q_(4,2) — answer -->
  <polyline fill="none" stroke="#f87171" stroke-width="2.8" stroke-linecap="round" stroke-linejoin="round"
            points="120.0,199.0 231.2,160.3 342.5,126.7 453.8,120.0"/>
  <!-- Q_(4,2) — witness -->
  <polyline fill="none" stroke="#f87171" stroke-width="1.8" stroke-linecap="round" stroke-linejoin="round" stroke-dasharray="6,4"
            points="120.0,254.4 231.2,192.2 342.5,136.4 453.8,120.0"/>

  <!-- Q_(5,3) — answer -->
  <polyline fill="none" stroke="#38bdf8" stroke-width="2.8" stroke-linecap="round" stroke-linejoin="round"
            points="120.0,160.3 231.2,142.3 342.5,125.9 453.8,120.0 565.0,120.0"/>
  <!-- Q_(5,3) — witness -->
  <polyline fill="none" stroke="#38bdf8" stroke-width="1.8" stroke-linecap="round" stroke-linejoin="round" stroke-dasharray="6,4"
            points="120.0,268.3 231.2,201.5 342.5,141.0 453.8,127.6 565.0,120.0"/>

  <!-- causal_referee — answer -->
  <polyline fill="none" stroke="#fbbf24" stroke-width="2.8" stroke-linecap="round" stroke-linejoin="round"
            points="120.0,199.4 231.2,128.0 342.5,120.0 453.8,120.0 565.0,120.0"/>
  <!-- causal_referee — witness -->
  <polyline fill="none" stroke="#fbbf24" stroke-width="1.8" stroke-linecap="round" stroke-linejoin="round" stroke-dasharray="6,4"
            points="120.0,316.6 231.2,230.9 342.5,270.8 453.8,135.1 565.0,120.0"/>

  <!-- ═══ DATA POINT DOTS — FORCED ═══ -->
  <!-- M₃ dots -->
  <circle cx="120.0" cy="212.0" r="3" fill="#60a5fa" opacity="0.9"/>
  <circle cx="231.2" cy="162.8" r="3" fill="#60a5fa" opacity="0.9"/>
  <circle cx="342.5" cy="128.4" r="3" fill="#60a5fa" opacity="0.9"/>
  <circle cx="453.8" cy="120.0" r="3" fill="#60a5fa" opacity="0.9"/>
  <!-- Q32 dots (answer) -->
  <circle cx="120.0" cy="204.4" r="3" fill="#34d399" opacity="0.9"/>
  <circle cx="231.2" cy="160.7" r="3" fill="#34d399" opacity="0.9"/>
  <circle cx="342.5" cy="125.0" r="3" fill="#34d399" opacity="0.9"/>
  <circle cx="453.8" cy="120.0" r="3" fill="#34d399" opacity="0.9"/>
  <!-- Q32 dots (witness) -->
  <circle cx="120.0" cy="258.6" r="2.5" fill="none" stroke="#34d399" stroke-width="1.2"/>
  <circle cx="231.2" cy="185.9" r="2.5" fill="none" stroke="#34d399" stroke-width="1.2"/>
  <circle cx="342.5" cy="139.3" r="2.5" fill="none" stroke="#34d399" stroke-width="1.2"/>
  <!-- Q42 dots (answer) -->
  <circle cx="120.0" cy="199.0" r="3" fill="#f87171" opacity="0.9"/>
  <circle cx="231.2" cy="160.3" r="3" fill="#f87171" opacity="0.9"/>
  <circle cx="342.5" cy="126.7" r="3" fill="#f87171" opacity="0.9"/>
  <circle cx="453.8" cy="120.0" r="3" fill="#f87171" opacity="0.9"/>
  <!-- Q42 dots (witness) -->
  <circle cx="120.0" cy="254.4" r="2.5" fill="none" stroke="#f87171" stroke-width="1.2"/>
  <circle cx="231.2" cy="192.2" r="2.5" fill="none" stroke="#f87171" stroke-width="1.2"/>
  <circle cx="342.5" cy="136.4" r="2.5" fill="none" stroke="#f87171" stroke-width="1.2"/>
  <!-- Q53 dots (answer) -->
  <circle cx="120.0" cy="160.3" r="3" fill="#38bdf8" opacity="0.9"/>
  <circle cx="231.2" cy="142.3" r="3" fill="#38bdf8" opacity="0.9"/>
  <circle cx="342.5" cy="125.9" r="3" fill="#38bdf8" opacity="0.9"/>
  <circle cx="453.8" cy="120.0" r="3" fill="#38bdf8" opacity="0.9"/>
  <circle cx="565.0" cy="120.0" r="3" fill="#38bdf8" opacity="0.9"/>
  <!-- Q53 dots (witness) -->
  <circle cx="120.0" cy="268.3" r="2.5" fill="none" stroke="#38bdf8" stroke-width="1.2"/>
  <circle cx="231.2" cy="201.5" r="2.5" fill="none" stroke="#38bdf8" stroke-width="1.2"/>
  <circle cx="342.5" cy="141.0" r="2.5" fill="none" stroke="#38bdf8" stroke-width="1.2"/>
  <circle cx="453.8" cy="127.6" r="2.5" fill="none" stroke="#38bdf8" stroke-width="1.2"/>
  <!-- causal_referee dots (answer) -->
  <circle cx="120.0" cy="199.4" r="3" fill="#fbbf24" opacity="0.9"/>
  <circle cx="231.2" cy="128.0" r="3" fill="#fbbf24" opacity="0.9"/>
  <circle cx="342.5" cy="120.0" r="3" fill="#fbbf24" opacity="0.9"/>
  <circle cx="453.8" cy="120.0" r="3" fill="#fbbf24" opacity="0.9"/>
  <circle cx="565.0" cy="120.0" r="3" fill="#fbbf24" opacity="0.9"/>
  <!-- causal_referee dots (witness) -->
  <circle cx="120.0" cy="316.6" r="2.5" fill="none" stroke="#fbbf24" stroke-width="1.2"/>
  <circle cx="231.2" cy="230.9" r="2.5" fill="none" stroke="#fbbf24" stroke-width="1.2"/>
  <circle cx="342.5" cy="270.8" r="2.5" fill="none" stroke="#fbbf24" stroke-width="1.2"/>
  <circle cx="453.8" cy="135.1" r="2.5" fill="none" stroke="#fbbf24" stroke-width="1.2"/>

  <!-- ═══ MIRAGE ZONE CALLOUT (forced panel) ═══ -->
  <!-- Arrow pointing to the gap at budget=2 for causal_referee (answer=1.0, witness=0.641) -->
  <g>
    <!-- Callout background pill -->
    <rect x="370" y="288" width="114" height="34" rx="6" fill="#1a1d27" stroke="#fbbf24" stroke-width="0.8" opacity="0.9"/>
    <text x="377" y="303" font-size="10" font-weight="700" fill="#fbbf24">mirage zone</text>
    <text x="377" y="316" font-size="8" font-weight="400" fill="#94a3b8">answer=1, witness≠1</text>
    <!-- Arrow line from callout to the gap -->
    <line x1="420" y1="288" x2="365" y2="220" stroke="#fbbf24" stroke-width="0.8" opacity="0.5" stroke-dasharray="2,2"/>
    <circle cx="342.5" cy="195" r="12" fill="none" stroke="#fbbf24" stroke-width="0.6" opacity="0.3" stroke-dasharray="2,2"/>
  </g>

  <!-- ══════════════════════════════════════════════════════════════════════════════ -->
  <!-- RIGHT PANEL: BREACH-ENABLED DECODING                                         -->
  <!-- Panel card: x=608..1158, chart: x=675..1120, y=120..540                      -->
  <!-- ══════════════════════════════════════════════════════════════════════════════ -->
  <rect x="608" y="82" width="556" height="500" rx="10" fill="#1a1d27" filter="url(#panelShadow)"/>
  <rect x="608" y="82" width="556" height="500" rx="10" fill="none" stroke="#252a36" stroke-width="1"/>

  <!-- Panel title -->
  <text x="624" y="104" font-size="14" font-weight="700" fill="#e2e8f0">Breach-enabled decoding</text>
  <text x="624" y="120" font-size="10" font-weight="400" fill="#64748b">system can abstain when uncertain</text>

  <!-- Y axis grid + labels -->
  <g font-size="9" font-weight="400" fill="#475569" text-anchor="end">
    <line x1="675" y1="540" x2="1120" y2="540" stroke="#252a36" stroke-width="0.7"/>
    <text x="667" y="543">0.0</text>
    <line x1="675" y1="498" x2="1120" y2="498" stroke="#252a36" stroke-width="0.5" stroke-dasharray="2,4"/>
    <text x="667" y="501" opacity="0.6">0.1</text>
    <line x1="675" y1="456" x2="1120" y2="456" stroke="#252a36" stroke-width="0.5" stroke-dasharray="2,4"/>
    <text x="667" y="459" opacity="0.6">0.2</text>
    <line x1="675" y1="414" x2="1120" y2="414" stroke="#252a36" stroke-width="0.5" stroke-dasharray="2,4"/>
    <text x="667" y="417" opacity="0.6">0.3</text>
    <line x1="675" y1="372" x2="1120" y2="372" stroke="#252a36" stroke-width="0.5" stroke-dasharray="2,4"/>
    <text x="667" y="375" opacity="0.6">0.4</text>
    <line x1="675" y1="330" x2="1120" y2="330" stroke="#252a36" stroke-width="0.5" stroke-dasharray="2,4"/>
    <text x="667" y="333">0.5</text>
    <line x1="675" y1="288" x2="1120" y2="288" stroke="#252a36" stroke-width="0.5" stroke-dasharray="2,4"/>
    <text x="667" y="291" opacity="0.6">0.6</text>
    <line x1="675" y1="246" x2="1120" y2="246" stroke="#252a36" stroke-width="0.5" stroke-dasharray="2,4"/>
    <text x="667" y="249" opacity="0.6">0.7</text>
    <line x1="675" y1="204" x2="1120" y2="204" stroke="#252a36" stroke-width="0.5" stroke-dasharray="2,4"/>
    <text x="667" y="207">0.8</text>
    <line x1="675" y1="162" x2="1120" y2="162" stroke="#252a36" stroke-width="0.5" stroke-dasharray="2,4"/>
    <text x="667" y="165" opacity="0.6">0.9</text>
    <line x1="675" y1="120" x2="1120" y2="120" stroke="#252a36" stroke-width="0.7"/>
    <text x="667" y="123">1.0</text>
  </g>

  <!-- X axis grid + labels -->
  <g font-size="9" font-weight="400" fill="#475569" text-anchor="middle">
    <line x1="675.0" y1="120" x2="675.0" y2="540" stroke="#252a36" stroke-width="0.7"/>
    <text x="675.0" y="556">0</text>
    <line x1="786.2" y1="120" x2="786.2" y2="540" stroke="#252a36" stroke-width="0.5" stroke-dasharray="2,4"/>
    <text x="786.2" y="556">1</text>
    <line x1="897.5" y1="120" x2="897.5" y2="540" stroke="#252a36" stroke-width="0.5" stroke-dasharray="2,4"/>
    <text x="897.5" y="556">2</text>
    <line x1="1008.8" y1="120" x2="1008.8" y2="540" stroke="#252a36" stroke-width="0.5" stroke-dasharray="2,4"/>
    <text x="1008.8" y="556">3</text>
    <line x1="1120.0" y1="120" x2="1120.0" y2="540" stroke="#252a36" stroke-width="0.7"/>
    <text x="1120.0" y="556">4</text>
  </g>
  <text x="897.5" y="574" font-size="10" font-weight="500" fill="#64748b" text-anchor="middle">memory budget (bits)</text>

  <!-- ═══ DATA LINES — BREACH PANEL ═══ -->
  <!-- In breach mode, answer = witness for all models (lines overlap) -->
  <!-- So we draw just one solid line per model with a thin dashed overlay -->

  <!-- M₃ -->
  <polyline fill="none" stroke="#60a5fa" stroke-width="2.8" stroke-linecap="round" stroke-linejoin="round"
            points="675.0,510.2 786.2,259.4 897.5,141.4 1008.8,120.0"/>
  <polyline fill="none" stroke="#60a5fa" stroke-width="1.8" stroke-linecap="round" stroke-linejoin="round" stroke-dasharray="6,4"
            points="675.0,510.2 786.2,259.4 897.5,141.4 1008.8,120.0"/>

  <!-- Q_(3,2) -->
  <polyline fill="none" stroke="#34d399" stroke-width="2.8" stroke-linecap="round" stroke-linejoin="round"
            points="675.0,532.0 786.2,344.3 897.5,180.9 1008.8,120.0"/>
  <polyline fill="none" stroke="#34d399" stroke-width="1.8" stroke-linecap="round" stroke-linejoin="round" stroke-dasharray="6,4"
            points="675.0,532.0 786.2,344.3 897.5,180.9 1008.8,120.0"/>

  <!-- Q_(4,2) -->
  <polyline fill="none" stroke="#f87171" stroke-width="2.8" stroke-linecap="round" stroke-linejoin="round"
            points="675.0,535.4 786.2,367.4 897.5,199.0 1008.8,120.0"/>
  <polyline fill="none" stroke="#f87171" stroke-width="1.8" stroke-linecap="round" stroke-linejoin="round" stroke-dasharray="6,4"
            points="675.0,535.4 786.2,367.4 897.5,199.0 1008.8,120.0"/>

  <!-- Q_(5,3) -->
  <polyline fill="none" stroke="#38bdf8" stroke-width="2.8" stroke-linecap="round" stroke-linejoin="round"
            points="675.0,539.6 786.2,409.4 897.5,229.6 1008.8,137.6 1120.0,120.0"/>
  <polyline fill="none" stroke="#38bdf8" stroke-width="1.8" stroke-linecap="round" stroke-linejoin="round" stroke-dasharray="6,4"
            points="675.0,539.6 786.2,409.4 897.5,229.6 1008.8,137.6 1120.0,120.0"/>

  <!-- causal_referee -->
  <polyline fill="none" stroke="#fbbf24" stroke-width="2.8" stroke-linecap="round" stroke-linejoin="round"
            points="675.0,540.0 786.2,316.6 897.5,190.6 1008.8,135.1 1120.0,120.0"/>
  <polyline fill="none" stroke="#fbbf24" stroke-width="1.8" stroke-linecap="round" stroke-linejoin="round" stroke-dasharray="6,4"
            points="675.0,540.0 786.2,316.6 897.5,190.6 1008.8,135.1 1120.0,120.0"/>

  <!-- ═══ DATA POINT DOTS — BREACH ═══ -->
  <!-- M₃ -->
  <circle cx="675.0" cy="510.2" r="3" fill="#60a5fa" opacity="0.9"/>
  <circle cx="786.2" cy="259.4" r="3" fill="#60a5fa" opacity="0.9"/>
  <circle cx="897.5" cy="141.4" r="3" fill="#60a5fa" opacity="0.9"/>
  <circle cx="1008.8" cy="120.0" r="3" fill="#60a5fa" opacity="0.9"/>
  <!-- Q32 -->
  <circle cx="675.0" cy="532.0" r="3" fill="#34d399" opacity="0.9"/>
  <circle cx="786.2" cy="344.3" r="3" fill="#34d399" opacity="0.9"/>
  <circle cx="897.5" cy="180.9" r="3" fill="#34d399" opacity="0.9"/>
  <circle cx="1008.8" cy="120.0" r="3" fill="#34d399" opacity="0.9"/>
  <!-- Q42 -->
  <circle cx="675.0" cy="535.4" r="3" fill="#f87171" opacity="0.9"/>
  <circle cx="786.2" cy="367.4" r="3" fill="#f87171" opacity="0.9"/>
  <circle cx="897.5" cy="199.0" r="3" fill="#f87171" opacity="0.9"/>
  <circle cx="1008.8" cy="120.0" r="3" fill="#f87171" opacity="0.9"/>
  <!-- Q53 -->
  <circle cx="675.0" cy="539.6" r="3" fill="#38bdf8" opacity="0.9"/>
  <circle cx="786.2" cy="409.4" r="3" fill="#38bdf8" opacity="0.9"/>
  <circle cx="897.5" cy="229.6" r="3" fill="#38bdf8" opacity="0.9"/>
  <circle cx="1008.8" cy="137.6" r="3" fill="#38bdf8" opacity="0.9"/>
  <circle cx="1120.0" cy="120.0" r="3" fill="#38bdf8" opacity="0.9"/>
  <!-- causal_referee -->
  <circle cx="675.0" cy="540.0" r="3" fill="#fbbf24" opacity="0.9"/>
  <circle cx="786.2" cy="316.6" r="3" fill="#fbbf24" opacity="0.9"/>
  <circle cx="897.5" cy="190.6" r="3" fill="#fbbf24" opacity="0.9"/>
  <circle cx="1008.8" cy="135.1" r="3" fill="#fbbf24" opacity="0.9"/>
  <circle cx="1120.0" cy="120.0" r="3" fill="#fbbf24" opacity="0.9"/>

  <!-- ═══ BREACH PANEL ANNOTATION ═══ -->
  <g>
    <rect x="740" y="430" width="172" height="34" rx="6" fill="#1a1d27" stroke="#475569" stroke-width="0.6" opacity="0.95"/>
    <text x="748" y="445" font-size="9.5" font-weight="600" fill="#94a3b8">no mirage zone</text>
    <text x="748" y="458" font-size="8" font-weight="400" fill="#64748b">answer = witness when abstention allowed</text>
    <line x1="826" y1="430" x2="826" y2="400" stroke="#475569" stroke-width="0.6" opacity="0.4" stroke-dasharray="2,2"/>
  </g>

  <!-- ══════════════ INSIGHT STRIP (bottom) ══════════════ -->
  <g transform="translate(40, 600)">
    <rect x="0" y="0" width="1124" height="38" rx="6" fill="#161b22" stroke="#1e293b" stroke-width="1"/>
    <text x="16" y="15" font-size="9" font-weight="700" fill="#fbbf24" letter-spacing="0.5">KEY INSIGHT</text>
    <text x="16" y="29" font-size="9.5" font-weight="400" fill="#94a3b8">In forced decoding, causal_referee hits answer = 1.0 at just 2 bits, but witness fidelity drops to 0.641 — the system "knows" the answer but has lost track of why.</text>
    <text x="870" y="29" font-size="9.5" font-weight="400" fill="#64748b">With abstention, this mirage vanishes entirely.</text>
  </g>

  <!-- Figure label -->
  <text x="56" y="652" font-size="9" font-weight="400" fill="#334155">Figure 2 · Stark: Selective Memory Theory · Exact Pareto Frontier Envelopes</text>
</svg>