<svg xmlns="http://www.w3.org/2000/svg" width="1100" height="620" viewBox="0 0 1100 620">
<style>
text { font-family: Menlo, Monaco, Consolas, monospace; font-size: 11px; fill: #1f2933; }
.title { font-size: 14px; font-weight: 700; }
.axis { stroke: #9fb3c8; stroke-width: 1; }
.grid { stroke: #d9e2ec; stroke-width: 1; stroke-dasharray: 4 4; }
.panel { fill: #ffffff; stroke: #d9e2ec; stroke-width: 1; }
</style>
<rect x="0" y="0" width="1100" height="620" fill="#fbfbfd"/>
<text x="88" y="24" class="title">Family Memory: Dynamic Thresholds And Smallest-World Frontier</text>
<rect x="88" y="58" width="462.0" height="470" class="panel"/>
<text x="98" y="48" class="title">Thresholds</text>
<line x1="108.00" y1="58" x2="108.00" y2="528" class="grid"/>
<text x="104.00" y="546">0</text>
<line x1="191.60" y1="58" x2="191.60" y2="528" class="grid"/>
<text x="187.60" y="546">1</text>
<line x1="275.20" y1="58" x2="275.20" y2="528" class="grid"/>
<text x="271.20" y="546">2</text>
<line x1="358.80" y1="58" x2="358.80" y2="528" class="grid"/>
<text x="354.80" y="546">3</text>
<line x1="442.39" y1="58" x2="442.39" y2="528" class="grid"/>
<text x="438.39" y="546">4</text>
<line x1="525.99" y1="58" x2="525.99" y2="528" class="grid"/>
<text x="521.99" y="546">5</text>
<line x1="609.59" y1="58" x2="609.59" y2="528" class="grid"/>
<text x="605.59" y="546">6</text>
<line x1="88" y1="528" x2="550.0" y2="528" class="axis"/>
<text x="18" y="116.00">A_k2_p3_3</text>
<circle cx="324.10" cy="112.00" r="6" fill="#c44536"/>
<circle cx="385.71" cy="112.00" r="6" fill="#22577a"/>
<circle cx="385.71" cy="112.00" r="6" fill="#0b6e4f"/>
<line x1="324.10" y1="112.00" x2="385.71" y2="112.00" stroke="#bcccdc" stroke-width="2"/>
<text x="18" y="204.00">A_k2_p4_4</text>
<circle cx="324.10" cy="200.00" r="6" fill="#c44536"/>
<circle cx="456.60" cy="200.00" r="6" fill="#22577a"/>
<circle cx="456.60" cy="200.00" r="6" fill="#0b6e4f"/>
<line x1="324.10" y1="200.00" x2="456.60" y2="200.00" stroke="#bcccdc" stroke-width="2"/>
<text x="18" y="292.00">A_k3_p4_21</text>
<circle cx="397.20" cy="288.00" r="6" fill="#c44536"/>
<circle cx="463.12" cy="288.00" r="6" fill="#22577a"/>
<circle cx="463.12" cy="288.00" r="6" fill="#0b6e4f"/>
<line x1="397.20" y1="288.00" x2="463.12" y2="288.00" stroke="#bcccdc" stroke-width="2"/>
<circle cx="400.0" cy="78" r="5" fill="#c44536"/>
<text x="412.0" y="82">answer</text>
<circle cx="400.0" cy="94" r="5" fill="#22577a"/>
<text x="412.0" y="98">variable</text>
<circle cx="400.0" cy="110" r="5" fill="#0b6e4f"/>
<text x="412.0" y="114">family</text>
<rect x="598.0" y="58" width="462.0" height="470" class="panel"/>
<text x="608.0" y="48" class="title">A_path_k2_p3 frontier</text>
<line x1="616.00" y1="58" x2="616.00" y2="528" class="grid"/>
<text x="612.00" y="546">0</text>
<line x1="722.50" y1="58" x2="722.50" y2="528" class="grid"/>
<text x="718.50" y="546">1</text>
<line x1="829.00" y1="58" x2="829.00" y2="528" class="grid"/>
<text x="825.00" y="546">2</text>
<line x1="935.50" y1="58" x2="935.50" y2="528" class="grid"/>
<text x="931.50" y="546">3</text>
<line x1="1042.00" y1="58" x2="1042.00" y2="528" class="grid"/>
<text x="1038.00" y="546">4</text>
<line x1="598.0" y1="508.00" x2="1060.0" y2="508.00" class="grid"/>
<text x="570.0" y="512.00">0.0</text>
<line x1="598.0" y1="464.60" x2="1060.0" y2="464.60" class="grid"/>
<text x="570.0" y="468.60">0.1</text>
<line x1="598.0" y1="421.20" x2="1060.0" y2="421.20" class="grid"/>
<text x="570.0" y="425.20">0.2</text>
<line x1="598.0" y1="377.80" x2="1060.0" y2="377.80" class="grid"/>
<text x="570.0" y="381.80">0.3</text>
<line x1="598.0" y1="334.40" x2="1060.0" y2="334.40" class="grid"/>
<text x="570.0" y="338.40">0.4</text>
<line x1="598.0" y1="291.00" x2="1060.0" y2="291.00" class="grid"/>
<text x="570.0" y="295.00">0.5</text>
<line x1="598.0" y1="247.60" x2="1060.0" y2="247.60" class="grid"/>
<text x="570.0" y="251.60">0.6</text>
<line x1="598.0" y1="204.20" x2="1060.0" y2="204.20" class="grid"/>
<text x="570.0" y="208.20">0.7</text>
<line x1="598.0" y1="160.80" x2="1060.0" y2="160.80" class="grid"/>
<text x="570.0" y="164.80">0.8</text>
<line x1="598.0" y1="117.40" x2="1060.0" y2="117.40" class="grid"/>
<text x="570.0" y="121.40">0.9</text>
<line x1="598.0" y1="74.00" x2="1060.0" y2="74.00" class="grid"/>
<text x="570.0" y="78.00">1.0</text>
<line x1="598.0" y1="528" x2="1060.0" y2="528" class="axis"/>
<line x1="598.0" y1="58" x2="598.0" y2="528" class="axis"/>
<polyline fill="none" stroke="#c44536" stroke-width="3" points="616.00,162.83 722.50,108.58 829.00,82.37 935.50,74.00 1042.00,74.00"/>
<polyline fill="none" stroke="#22577a" stroke-width="3" points="616.00,237.84 722.50,150.83 829.00,113.50 935.50,79.14 1042.00,74.00"/>
<polyline fill="none" stroke="#0b6e4f" stroke-width="3" points="616.00,196.04 722.50,129.13 829.00,103.00 935.50,77.94 1042.00,74.00"/>
<polyline fill="none" stroke="#c44536" stroke-width="3" stroke-dasharray="6 5" points="616.00,503.62 722.50,339.33 829.00,177.22 935.50,89.19 1042.00,74.00"/>
<polyline fill="none" stroke="#22577a" stroke-width="3" stroke-dasharray="6 5" points="616.00,503.62 722.50,339.33 829.00,177.22 935.50,89.19 1042.00,74.00"/>
<polyline fill="none" stroke="#0b6e4f" stroke-width="3" stroke-dasharray="6 5" points="616.00,503.62 722.50,339.33 829.00,177.22 935.50,89.19 1042.00,74.00"/>
<text x="890.0" y="80">solid = forced</text>
<text x="890.0" y="96">dashed = breach</text>
</svg>