<svg xmlns="http://www.w3.org/2000/svg" width="1120" height="428" viewBox="0 0 1120 428">
<style>
text { font-family: "Helvetica Neue", Helvetica, Arial, sans-serif; font-size: 12px; fill: #243b53; }
.title { font-size: 22px; font-weight: 700; fill: #102a43; }
.subtitle { font-size: 13px; fill: #52606d; }
.label { font-size: 14px; font-weight: 600; fill: #102a43; }
.grid { stroke: #e5e7eb; stroke-width: 1; stroke-dasharray: 3 6; }
.axis { stroke: #9fb3c8; stroke-width: 1.2; }
.badge { fill: #ffffff; stroke: #d9e2ec; stroke-width: 1; }
</style>
<rect x="0" y="0" width="1120" height="428" fill="#fcfcfb"/>
<text x="210" y="34" class="title">Memory Stratigraphy</text>
<text x="210" y="56" class="subtitle">Bit thresholds from the canonical quotient down to answer-only observation</text>
<rect x="184" y="54" width="874" height="322" rx="18" ry="18" fill="#ffffff" stroke="#e6e8eb" stroke-width="1.2"/>
<line x1="210.00" y1="78" x2="210.00" y2="374" class="grid"/>
<text x="206.00" y="400">0</text>
<line x1="276.80" y1="78" x2="276.80" y2="374" class="grid"/>
<text x="272.80" y="400">1</text>
<line x1="343.59" y1="78" x2="343.59" y2="374" class="grid"/>
<text x="339.59" y="400">2</text>
<line x1="410.39" y1="78" x2="410.39" y2="374" class="grid"/>
<text x="406.39" y="400">3</text>
<line x1="477.19" y1="78" x2="477.19" y2="374" class="grid"/>
<text x="473.19" y="400">4</text>
<line x1="543.98" y1="78" x2="543.98" y2="374" class="grid"/>
<text x="539.98" y="400">5</text>
<line x1="610.78" y1="78" x2="610.78" y2="374" class="grid"/>
<text x="606.78" y="400">6</text>
<line x1="677.57" y1="78" x2="677.57" y2="374" class="grid"/>
<text x="673.57" y="400">7</text>
<line x1="744.37" y1="78" x2="744.37" y2="374" class="grid"/>
<text x="740.37" y="400">8</text>
<line x1="811.17" y1="78" x2="811.17" y2="374" class="grid"/>
<text x="807.17" y="400">9</text>
<line x1="877.96" y1="78" x2="877.96" y2="374" class="grid"/>
<text x="873.96" y="400">10</text>
<line x1="944.76" y1="78" x2="944.76" y2="374" class="grid"/>
<text x="940.76" y="400">11</text>
<line x1="1011.56" y1="78" x2="1011.56" y2="374" class="grid"/>
<text x="1007.56" y="400">12</text>
<line x1="1078.35" y1="78" x2="1078.35" y2="374" class="grid"/>
<text x="1074.35" y="400">13</text>
<line x1="210" y1="382" x2="1032" y2="382" class="axis"/>
<text x="607.00" y="416" class="subtitle">bits</text>
<circle cx="838" cy="30" r="5.5" fill="#102a43"/>
<text x="852" y="34">algebraic</text>
<circle cx="838" cy="50" r="5.5" fill="#0b6e4f"/>
<text x="852" y="54">empirical</text>
<circle cx="838" cy="70" r="5.5" fill="#22577a"/>
<text x="852" y="74">probe-joint</text>
<circle cx="838" cy="90" r="5.5" fill="#c44536"/>
<text x="852" y="94">probe-witness</text>
<circle cx="838" cy="110" r="5.5" fill="#f4a261"/>
<text x="852" y="114">probe-answer</text>
<text x="28" y="110" class="label">M_3</text>
<line x1="365.10" y1="106.00" x2="464.32" y2="106.00" stroke="#d9e2ec" stroke-width="7" stroke-linecap="round"/>
<circle cx="365.10" cy="106.00" r="6" fill="#f4a261" stroke="#ffffff" stroke-width="1.5"/>
<circle cx="210.00" cy="106.00" r="6" fill="#c44536" stroke="#ffffff" stroke-width="1.5"/>
<circle cx="365.10" cy="106.00" r="6" fill="#22577a" stroke="#ffffff" stroke-width="1.5"/>
<circle cx="464.32" cy="106.00" r="6" fill="#0b6e4f" stroke="#ffffff" stroke-width="1.5"/>
<circle cx="464.32" cy="106.00" r="6" fill="#102a43" stroke="#ffffff" stroke-width="1.5"/>
<rect x="864" y="90" width="150" height="28" rx="14" ry="14" class="badge"/>
<text x="876" y="110.00">Δ=1.485   ω=0.000</text>
<text x="28" y="172" class="label">Q_(3,2)</text>
<line x1="365.10" y1="168.00" x2="594.41" y2="168.00" stroke="#d9e2ec" stroke-width="7" stroke-linecap="round"/>
<circle cx="365.10" cy="168.00" r="6" fill="#f4a261" stroke="#ffffff" stroke-width="1.5"/>
<circle cx="397.52" cy="168.00" r="6" fill="#c44536" stroke="#ffffff" stroke-width="1.5"/>
<circle cx="397.52" cy="168.00" r="6" fill="#22577a" stroke="#ffffff" stroke-width="1.5"/>
<circle cx="594.41" cy="168.00" r="6" fill="#0b6e4f" stroke="#ffffff" stroke-width="1.5"/>
<circle cx="594.41" cy="168.00" r="6" fill="#102a43" stroke="#ffffff" stroke-width="1.5"/>
<rect x="864" y="152" width="150" height="28" rx="14" ry="14" class="badge"/>
<text x="876" y="172.00">Δ=2.948   ω=0.485</text>
<text x="28" y="234" class="label">Q_(4,2)</text>
<line x1="382.67" y1="230.00" x2="643.63" y2="230.00" stroke="#d9e2ec" stroke-width="7" stroke-linecap="round"/>
<circle cx="382.67" cy="230.00" r="6" fill="#f4a261" stroke="#ffffff" stroke-width="1.5"/>
<circle cx="410.39" cy="230.00" r="6" fill="#c44536" stroke="#ffffff" stroke-width="1.5"/>
<circle cx="410.39" cy="230.00" r="6" fill="#22577a" stroke="#ffffff" stroke-width="1.5"/>
<circle cx="643.63" cy="230.00" r="6" fill="#0b6e4f" stroke="#ffffff" stroke-width="1.5"/>
<circle cx="643.63" cy="230.00" r="6" fill="#102a43" stroke="#ffffff" stroke-width="1.5"/>
<rect x="864" y="214" width="150" height="28" rx="14" ry="14" class="badge"/>
<text x="876" y="234.00">Δ=3.492   ω=0.415</text>
<text x="28" y="296" class="label">Q_(5,3)</text>
<line x1="397.52" y1="292.00" x2="852.10" y2="292.00" stroke="#d9e2ec" stroke-width="7" stroke-linecap="round"/>
<circle cx="397.52" cy="292.00" r="6" fill="#f4a261" stroke="#ffffff" stroke-width="1.5"/>
<circle cx="457.18" cy="292.00" r="6" fill="#c44536" stroke="#ffffff" stroke-width="1.5"/>
<circle cx="457.18" cy="292.00" r="6" fill="#22577a" stroke="#ffffff" stroke-width="1.5"/>
<circle cx="852.10" cy="292.00" r="6" fill="#0b6e4f" stroke="#ffffff" stroke-width="1.5"/>
<circle cx="852.10" cy="292.00" r="6" fill="#102a43" stroke="#ffffff" stroke-width="1.5"/>
<rect x="864" y="276" width="150" height="28" rx="14" ry="14" class="badge"/>
<text x="876" y="296.00">Δ=5.912   ω=0.893</text>
<text x="28" y="358" class="label">causal_referee</text>
<line x1="343.59" y1="354.00" x2="965.20" y2="354.00" stroke="#d9e2ec" stroke-width="7" stroke-linecap="round"/>
<circle cx="343.59" cy="354.00" r="6" fill="#f4a261" stroke="#ffffff" stroke-width="1.5"/>
<circle cx="470.97" cy="354.00" r="6" fill="#c44536" stroke="#ffffff" stroke-width="1.5"/>
<circle cx="470.97" cy="354.00" r="6" fill="#22577a" stroke="#ffffff" stroke-width="1.5"/>
<circle cx="470.97" cy="354.00" r="6" fill="#0b6e4f" stroke="#ffffff" stroke-width="1.5"/>
<circle cx="965.20" cy="354.00" r="6" fill="#102a43" stroke="#ffffff" stroke-width="1.5"/>
<rect x="864" y="338" width="150" height="28" rx="14" ry="14" class="badge"/>
<text x="876" y="358.00">Δ=7.399   ω=1.907</text>
</svg>