<svg xmlns="http://www.w3.org/2000/svg" width="1540" height="920" viewBox="0 0 1540 920">
  <defs>
    <filter id="cardShadow" x="-2%" y="-1%" width="104%" height="104%">
      <feDropShadow dx="0" dy="2" stdDeviation="6" flood-color="#000000" flood-opacity="0.3"/>
    </filter>
    <linearGradient id="accentGrad" x1="0" y1="0" x2="1" y2="0">
      <stop offset="0%" stop-color="#10b981"/>
      <stop offset="40%" stop-color="#6366f1"/>
      <stop offset="80%" stop-color="#f59e0b"/>
      <stop offset="100%" stop-color="#f59e0b" stop-opacity="0"/>
    </linearGradient>
    <linearGradient id="controlRowGrad" x1="0" y1="0" x2="1" y2="0">
      <stop offset="0%" stop-color="#1e293b" stop-opacity="0.5"/>
      <stop offset="100%" stop-color="#1e293b" stop-opacity="0.15"/>
    </linearGradient>
    <linearGradient id="simplexRowGrad" x1="0" y1="0" x2="1" y2="0">
      <stop offset="0%" stop-color="#312e81" stop-opacity="0.45"/>
      <stop offset="100%" stop-color="#312e81" stop-opacity="0.1"/>
    </linearGradient>
    <linearGradient id="cycleRowGrad" x1="0" y1="0" x2="1" y2="0">
      <stop offset="0%" stop-color="#064e3b" stop-opacity="0.5"/>
      <stop offset="100%" stop-color="#064e3b" stop-opacity="0.12"/>
    </linearGradient>
    <linearGradient id="tetraRowGrad" x1="0" y1="0" x2="1" y2="0">
      <stop offset="0%" stop-color="#78350f" stop-opacity="0.45"/>
      <stop offset="100%" stop-color="#78350f" stop-opacity="0.1"/>
    </linearGradient>
    <!-- Compression bar gradient -->
    <linearGradient id="compBarFull" x1="0" y1="0" x2="1" y2="0">
      <stop offset="0%" stop-color="#475569"/>
      <stop offset="100%" stop-color="#334155"/>
    </linearGradient>
    <linearGradient id="compBarComp" x1="0" y1="0" x2="1" y2="0">
      <stop offset="0%" stop-color="#6366f1"/>
      <stop offset="100%" stop-color="#818cf8"/>
    </linearGradient>
  </defs>

  <style>
    text { font-family: 'Inter', -apple-system, BlinkMacSystemFont, 'Segoe UI', system-ui, sans-serif; }
    .mono { font-family: 'SF Mono', 'Fira Code', 'Cascadia Code', 'JetBrains Mono', monospace; }
  </style>

  <!-- ═══════════ BACKGROUND ═══════════ -->
  <rect width="1540" height="920" rx="8" fill="#0f1117"/>
  <rect x="0.5" y="0.5" width="1539" height="919" rx="8" fill="none" stroke="#1e293b" stroke-width="1"/>

  <!-- ═══════════ HEADER ═══════════ -->
  <text x="44" y="38" font-size="26" font-weight="700" fill="#f1f5f9" letter-spacing="-0.5">Global Holonomy Atlas</text>
  <rect x="44" y="47" width="150" height="2.5" rx="1.25" fill="url(#accentGrad)" opacity="0.7"/>
  <text x="44" y="64" font-size="12" font-weight="400" fill="#94a3b8">Beyond simplex — static and dynamic obstructions don't coincide, and the global layer compresses</text>

  <!-- ═══════════ TOP METRIC CARDS ═══════════ -->

  <!-- Card 1: Scan -->
  <rect x="44" y="80" width="460" height="100" rx="10" fill="#1a1d27" filter="url(#cardShadow)"/>
  <rect x="44" y="80" width="460" height="100" rx="10" fill="none" stroke="#252a36" stroke-width="1"/>
  <text x="62" y="102" font-size="9" font-weight="700" fill="#64748b" letter-spacing="1.2">SCAN</text>
  <text x="62" y="136" font-size="36" font-weight="800" fill="#f1f5f9" letter-spacing="-1">1,032</text>
  <text x="192" y="136" font-size="14" font-weight="500" fill="#94a3b8">semantic-family analyses</text>
  <text x="62" y="156" font-size="10" font-weight="400" fill="#64748b">Base grid p ≤ 4, k ≤ 3. 8 semantics × 129 families.</text>
  <text x="62" y="170" font-size="10" font-weight="400" fill="#64748b">p = 4 already fixes the minimal-boundary winners.</text>

  <!-- Card 2: Boundary Split -->
  <rect x="524" y="80" width="500" height="100" rx="10" fill="#1a1d27" filter="url(#cardShadow)"/>
  <rect x="524" y="80" width="500" height="100" rx="10" fill="none" stroke="#252a36" stroke-width="1"/>
  <text x="542" y="102" font-size="9" font-weight="700" fill="#10b981" letter-spacing="1.2">BOUNDARY SPLIT</text>

  <!-- Static indicator -->
  <text x="542" y="124" font-size="10" font-weight="500" fill="#94a3b8">First static obstruction:</text>
  <rect x="688" y="112" width="60" height="18" rx="4" fill="#064e3b" stroke="#10b981" stroke-width="0.7"/>
  <text x="700" y="125" font-size="10" font-weight="700" fill="#34d399" class="mono">|A|=5</text>
  <text x="760" y="124" font-size="10" font-weight="400" fill="#64748b">cycle-like (5 edges)</text>

  <!-- Dynamic indicator -->
  <text x="542" y="146" font-size="10" font-weight="500" fill="#94a3b8">First dynamic obstruction:</text>
  <rect x="706" y="134" width="60" height="18" rx="4" fill="#78350f" stroke="#f59e0b" stroke-width="0.7"/>
  <text x="718" y="147" font-size="10" font-weight="700" fill="#fbbf24" class="mono">|A|=4</text>
  <text x="778" y="146" font-size="10" font-weight="400" fill="#64748b">mixed/tetra-local (4 edges)</text>

  <!-- Key finding -->
  <rect x="542" y="158" width="124" height="16" rx="3" fill="#2a1520" stroke="#f87171" stroke-width="0.6"/>
  <text x="552" y="170" font-size="9" font-weight="700" fill="#f87171">winners differ = true</text>
  <text x="676" y="170" font-size="9" font-weight="400" fill="#64748b">— static and dynamic appear on different families</text>

  <!-- Card 3: Compression -->
  <rect x="1044" y="80" width="452" height="100" rx="10" fill="#1a1d27" filter="url(#cardShadow)"/>
  <rect x="1044" y="80" width="452" height="100" rx="10" fill="none" stroke="#252a36" stroke-width="1"/>
  <text x="1062" y="102" font-size="9" font-weight="700" fill="#818cf8" letter-spacing="1.2">COMPRESSION</text>
  <text x="1062" y="126" font-size="14" font-weight="700" fill="#e2e8f0">Best exact quotient</text>

  <!-- Mini compression bar -->
  <text x="1062" y="146" font-size="10" font-weight="500" fill="#94a3b8">Raw global: 1,942 states</text>
  <rect x="1062" y="152" width="380" height="6" rx="3" fill="url(#compBarFull)" opacity="0.4"/>
  <rect x="1062" y="152" width="347" height="6" rx="3" fill="url(#compBarComp)" opacity="0.8"/>
  <text x="1062" y="170" font-size="10" font-weight="600" fill="#818cf8">Component cochain signature: 1,774</text>
  <text x="1340" y="170" font-size="10" font-weight="400" fill="#64748b">exact (91.4%)</text>

  <!-- ═══════════════════════════════════════════════════════════════════════════ -->
  <!-- SEMANTIC SUMMARY TABLE                                                     -->
  <!-- Panel: x=44..1496, y=198..586                                             -->
  <!-- ═══════════════════════════════════════════════════════════════════════════ -->
  <rect x="44" y="198" width="1452" height="396" rx="10" fill="#1a1d27" filter="url(#cardShadow)"/>
  <rect x="44" y="198" width="1452" height="396" rx="10" fill="none" stroke="#252a36" stroke-width="1"/>

  <text x="62" y="224" font-size="14" font-weight="700" fill="#e2e8f0">Semantic Summary</text>
  <text x="198" y="224" font-size="10" font-weight="400" fill="#64748b">8 semantics × 129 families each — what lies beyond simplex transport?</text>

  <!-- Column headers -->
  <g font-size="9" font-weight="700" fill="#475569" letter-spacing="0.8">
    <text x="62" y="252">#</text>
    <text x="82" y="252">SEMANTICS</text>
    <text x="378" y="252">KIND</text>
    <text x="510" y="252">|P|/|S|/|X|</text>
    <text x="610" y="252">FAMILIES</text>
    <text x="696" y="252">FIRST STATIC</text>
    <text x="904" y="252">FIRST DYNAMIC</text>
    <text x="1120" y="252">COMPRESSION</text>
  </g>
  <line x1="56" y1="262" x2="1488" y2="262" stroke="#252a36" stroke-width="1"/>

  <!-- ═══ ROW 1: Broadcast — control ═══ -->
  <rect x="52" y="268" width="1436" height="34" rx="5" fill="url(#controlRowGrad)"/>
  <text x="62" y="290" font-size="10" font-weight="500" fill="#475569">1</text>
  <text x="82" y="290" font-size="11" font-weight="600" fill="#e2e8f0">Broadcast</text>
  <text x="378" y="290" font-size="10" font-weight="500" fill="#94a3b8">control</text>
  <text x="510" y="290" font-size="10" font-weight="500" fill="#94a3b8" class="mono">1 / 1 / 1</text>
  <text x="610" y="290" font-size="10" font-weight="500" fill="#94a3b8" class="mono">129</text>
  <text x="696" y="290" font-size="10" fill="#475569">—</text>
  <text x="904" y="290" font-size="10" fill="#475569">—</text>
  <text x="1120" y="290" font-size="10" fill="#475569">—</text>
  <!-- Status -->
  <rect x="1378" y="276" width="48" height="18" rx="4" fill="#1e293b" stroke="#475569" stroke-width="0.7"/>
  <text x="1390" y="289" font-size="8" font-weight="600" fill="#475569">flat</text>

  <!-- ═══ ROW 2: Committed Allocation — control ═══ -->
  <rect x="52" y="306" width="1436" height="34" rx="5" fill="url(#controlRowGrad)"/>
  <text x="62" y="328" font-size="10" font-weight="500" fill="#475569">2</text>
  <text x="82" y="328" font-size="11" font-weight="600" fill="#e2e8f0">Committed Allocation</text>
  <text x="378" y="328" font-size="10" font-weight="500" fill="#94a3b8">control</text>
  <text x="510" y="328" font-size="10" font-weight="500" fill="#94a3b8" class="mono">1 / 1 / 1</text>
  <text x="610" y="328" font-size="10" font-weight="500" fill="#94a3b8" class="mono">129</text>
  <text x="696" y="328" font-size="10" fill="#475569">—</text>
  <text x="904" y="328" font-size="10" fill="#475569">—</text>
  <text x="1120" y="328" font-size="10" fill="#475569">—</text>
  <rect x="1378" y="314" width="48" height="18" rx="4" fill="#1e293b" stroke="#475569" stroke-width="0.7"/>
  <text x="1390" y="327" font-size="8" font-weight="600" fill="#475569">flat</text>

  <!-- Separator -->
  <line x1="56" y1="344" x2="1488" y2="344" stroke="#252a36" stroke-width="0.5" stroke-dasharray="3,4"/>

  <!-- ═══ ROW 3: Shared Pair Phase + Feedback Orient — simplex_control ═══ -->
  <rect x="52" y="350" width="1436" height="34" rx="5" fill="url(#simplexRowGrad)"/>
  <text x="62" y="372" font-size="10" font-weight="500" fill="#475569">3</text>
  <text x="82" y="372" font-size="11" font-weight="600" fill="#e2e8f0">Shared Pair Phase + Feedback Orient</text>
  <text x="378" y="372" font-size="10" font-weight="500" fill="#a5b4fc">simplex_ctrl</text>
  <text x="510" y="372" font-size="10" font-weight="500" fill="#94a3b8" class="mono">2 / 4 / 1</text>
  <text x="610" y="372" font-size="10" font-weight="500" fill="#94a3b8" class="mono">129</text>
  <text x="696" y="372" font-size="10" fill="#475569">—</text>
  <text x="904" y="372" font-size="10" fill="#475569">—</text>
  <text x="1120" y="372" font-size="10" fill="#475569">—</text>
  <rect x="1378" y="358" width="100" height="18" rx="4" fill="#312e81" stroke="#6366f1" stroke-width="0.7"/>
  <text x="1388" y="371" font-size="8" font-weight="600" fill="#a5b4fc">simplex control</text>

  <!-- Separator -->
  <line x1="56" y1="388" x2="1488" y2="388" stroke="#252a36" stroke-width="0.5" stroke-dasharray="3,4"/>

  <!-- ═══ ROW 4: Feedback Orient + Cycle Flux — global_cycle ═══ -->
  <rect x="52" y="394" width="1436" height="34" rx="5" fill="url(#cycleRowGrad)"/>
  <text x="62" y="416" font-size="10" font-weight="500" fill="#475569">4</text>
  <text x="82" y="416" font-size="11" font-weight="600" fill="#e2e8f0">Feedback Orient + Cycle Flux</text>
  <text x="378" y="416" font-size="10" font-weight="500" fill="#34d399">global_cycle</text>
  <text x="510" y="416" font-size="10" font-weight="600" fill="#e2e8f0" class="mono">2 / 4 / 2</text>
  <text x="610" y="416" font-size="10" font-weight="500" fill="#94a3b8" class="mono">129</text>
  <!-- Static -->
  <rect x="696" y="405" width="56" height="16" rx="3" fill="#064e3b" stroke="#10b981" stroke-width="0.6"/>
  <text x="708" y="417" font-size="9" font-weight="700" fill="#34d399" class="mono">|A|=5</text>
  <text x="758" y="416" font-size="9" font-weight="400" fill="#64748b">cycle</text>
  <!-- Dynamic -->
  <rect x="904" y="405" width="56" height="16" rx="3" fill="#78350f" stroke="#f59e0b" stroke-width="0.6"/>
  <text x="916" y="417" font-size="9" font-weight="700" fill="#fbbf24" class="mono">|A|=4</text>
  <text x="966" y="416" font-size="9" font-weight="400" fill="#64748b">mixed</text>
  <text x="1120" y="416" font-size="10" fill="#475569">—</text>
  <rect x="1378" y="402" width="80" height="18" rx="4" fill="#064e3b" stroke="#10b981" stroke-width="0.7"/>
  <text x="1388" y="415" font-size="8" font-weight="600" fill="#34d399">global cycle</text>

  <!-- ═══ ROW 5: Feedback Orient + Feedback Loop — global_cycle ═══ -->
  <rect x="52" y="432" width="1436" height="34" rx="5" fill="url(#cycleRowGrad)"/>
  <text x="62" y="454" font-size="10" font-weight="500" fill="#475569">5</text>
  <text x="82" y="454" font-size="11" font-weight="600" fill="#e2e8f0">Feedback Orient + Feedback Loop</text>
  <text x="378" y="454" font-size="10" font-weight="500" fill="#34d399">global_cycle</text>
  <text x="510" y="454" font-size="10" font-weight="600" fill="#e2e8f0" class="mono">2 / 4 / 2</text>
  <text x="610" y="454" font-size="10" font-weight="500" fill="#94a3b8" class="mono">129</text>
  <rect x="696" y="443" width="56" height="16" rx="3" fill="#064e3b" stroke="#10b981" stroke-width="0.6"/>
  <text x="708" y="455" font-size="9" font-weight="700" fill="#34d399" class="mono">|A|=5</text>
  <text x="758" y="454" font-size="9" font-weight="400" fill="#64748b">cycle</text>
  <rect x="904" y="443" width="56" height="16" rx="3" fill="#78350f" stroke="#f59e0b" stroke-width="0.6"/>
  <text x="916" y="455" font-size="9" font-weight="700" fill="#fbbf24" class="mono">|A|=4</text>
  <text x="966" y="454" font-size="9" font-weight="400" fill="#64748b">mixed</text>
  <text x="1120" y="454" font-size="10" fill="#475569">—</text>
  <rect x="1378" y="440" width="80" height="18" rx="4" fill="#064e3b" stroke="#10b981" stroke-width="0.7"/>
  <text x="1388" y="453" font-size="8" font-weight="600" fill="#34d399">global cycle</text>

  <!-- ═══ ROW 6: Feedback Orient + Face-Order Parity — global_cycle + COMPRESSION ═══ -->
  <rect x="52" y="470" width="1436" height="34" rx="5" fill="url(#cycleRowGrad)"/>
  <!-- Highlight this row subtly as it has compression -->
  <rect x="52" y="470" width="1436" height="34" rx="5" fill="none" stroke="#6366f1" stroke-width="0.5" stroke-dasharray="4,3" opacity="0.4"/>
  <text x="62" y="492" font-size="10" font-weight="500" fill="#475569">6</text>
  <text x="82" y="492" font-size="11" font-weight="600" fill="#e2e8f0">Feedback Orient + Face-Order Parity</text>
  <text x="378" y="492" font-size="10" font-weight="500" fill="#34d399">global_cycle</text>
  <text x="510" y="492" font-size="10" font-weight="600" fill="#e2e8f0" class="mono">2 / 4 / 2</text>
  <text x="610" y="492" font-size="10" font-weight="500" fill="#94a3b8" class="mono">129</text>
  <rect x="696" y="481" width="56" height="16" rx="3" fill="#064e3b" stroke="#10b981" stroke-width="0.6"/>
  <text x="708" y="493" font-size="9" font-weight="700" fill="#34d399" class="mono">|A|=5</text>
  <text x="758" y="492" font-size="9" font-weight="400" fill="#64748b">cycle</text>
  <rect x="904" y="481" width="56" height="16" rx="3" fill="#78350f" stroke="#f59e0b" stroke-width="0.6"/>
  <text x="916" y="493" font-size="9" font-weight="700" fill="#fbbf24" class="mono">|A|=4</text>
  <text x="966" y="492" font-size="9" font-weight="400" fill="#64748b">mixed</text>
  <!-- Compression value -->
  <text x="1120" y="492" font-size="10" font-weight="600" fill="#818cf8" class="mono">cochain sig (1774)</text>
  <rect x="1378" y="478" width="80" height="18" rx="4" fill="#064e3b" stroke="#10b981" stroke-width="0.7"/>
  <text x="1388" y="491" font-size="8" font-weight="600" fill="#34d399">global cycle</text>

  <!-- Separator -->
  <line x1="56" y1="508" x2="1488" y2="508" stroke="#252a36" stroke-width="0.5" stroke-dasharray="3,4"/>

  <!-- ═══ ROW 7: Feedback Orient + Tetra Freeze — tetra_local ═══ -->
  <rect x="52" y="514" width="1436" height="34" rx="5" fill="url(#tetraRowGrad)"/>
  <text x="62" y="536" font-size="10" font-weight="500" fill="#475569">7</text>
  <text x="82" y="536" font-size="11" font-weight="600" fill="#e2e8f0">Feedback Orient + Tetra Freeze</text>
  <text x="378" y="536" font-size="10" font-weight="500" fill="#fbbf24">tetra_local</text>
  <text x="510" y="536" font-size="10" font-weight="600" fill="#e2e8f0" class="mono">2 / 4 / 2</text>
  <text x="610" y="536" font-size="10" font-weight="500" fill="#94a3b8" class="mono">129</text>
  <rect x="696" y="525" width="56" height="16" rx="3" fill="#78350f" stroke="#f59e0b" stroke-width="0.6"/>
  <text x="708" y="537" font-size="9" font-weight="700" fill="#fbbf24" class="mono">|A|=4</text>
  <text x="758" y="536" font-size="9" font-weight="400" fill="#64748b">tetra</text>
  <rect x="904" y="525" width="56" height="16" rx="3" fill="#78350f" stroke="#f59e0b" stroke-width="0.6"/>
  <text x="916" y="537" font-size="9" font-weight="700" fill="#fbbf24" class="mono">|A|=4</text>
  <text x="966" y="536" font-size="9" font-weight="400" fill="#64748b">tetra</text>
  <text x="1120" y="536" font-size="10" fill="#475569">—</text>
  <rect x="1378" y="522" width="78" height="18" rx="4" fill="#78350f" stroke="#f59e0b" stroke-width="0.7"/>
  <text x="1390" y="535" font-size="8" font-weight="600" fill="#fbbf24">tetra local</text>

  <!-- ═══ ROW 8: Feedback Orient + Tetra Toggle — tetra_local ═══ -->
  <rect x="52" y="552" width="1436" height="34" rx="5" fill="url(#tetraRowGrad)"/>
  <text x="62" y="574" font-size="10" font-weight="500" fill="#475569">8</text>
  <text x="82" y="574" font-size="11" font-weight="600" fill="#e2e8f0">Feedback Orient + Tetra Toggle</text>
  <text x="378" y="574" font-size="10" font-weight="500" fill="#fbbf24">tetra_local</text>
  <text x="510" y="574" font-size="10" font-weight="600" fill="#e2e8f0" class="mono">2 / 4 / 2</text>
  <text x="610" y="574" font-size="10" font-weight="500" fill="#94a3b8" class="mono">129</text>
  <rect x="696" y="563" width="56" height="16" rx="3" fill="#78350f" stroke="#f59e0b" stroke-width="0.6"/>
  <text x="708" y="575" font-size="9" font-weight="700" fill="#fbbf24" class="mono">|A|=4</text>
  <text x="758" y="574" font-size="9" font-weight="400" fill="#64748b">tetra</text>
  <!-- Dynamic: four_edge_star -->
  <rect x="904" y="563" width="108" height="16" rx="3" fill="#78350f" stroke="#f59e0b" stroke-width="0.6"/>
  <text x="914" y="575" font-size="9" font-weight="700" fill="#fbbf24" class="mono">four_edge_star</text>
  <text x="1120" y="574" font-size="10" fill="#475569">—</text>
  <rect x="1378" y="560" width="78" height="18" rx="4" fill="#78350f" stroke="#f59e0b" stroke-width="0.7"/>
  <text x="1390" y="573" font-size="8" font-weight="600" fill="#fbbf24">tetra local</text>

  <!-- Table legend strip -->
  <g transform="translate(56, 592)">
    <g font-size="8" font-weight="600">
      <rect x="0" y="0" width="120" height="10" rx="2" fill="url(#controlRowGrad)"/>
      <text x="60" y="8" fill="#475569" text-anchor="middle">CONTROLS</text>
      <rect x="130" y="0" width="136" height="10" rx="2" fill="url(#simplexRowGrad)"/>
      <text x="198" y="8" fill="#a5b4fc" text-anchor="middle">SIMPLEX CONTROL</text>
      <rect x="276" y="0" width="200" height="10" rx="2" fill="url(#cycleRowGrad)"/>
      <text x="376" y="8" fill="#34d399" text-anchor="middle">GLOBAL CYCLE (static=5, dynamic=4)</text>
      <rect x="486" y="0" width="200" height="10" rx="2" fill="url(#tetraRowGrad)"/>
      <text x="586" y="8" fill="#fbbf24" text-anchor="middle">TETRA LOCAL (static=4, dynamic=4)</text>
    </g>
  </g>


  <!-- ═══════════════════════════════════════════════════════════════════════════ -->
  <!-- BOTTOM DETAIL CARDS                                                        -->
  <!-- ═══════════════════════════════════════════════════════════════════════════ -->

  <!-- Card: Static vs Dynamic Obstruction -->
  <rect x="44" y="622" width="730" height="232" rx="10" fill="#1a1d27" filter="url(#cardShadow)"/>
  <rect x="44" y="622" width="730" height="232" rx="10" fill="none" stroke="#252a36" stroke-width="1"/>

  <text x="62" y="650" font-size="9" font-weight="700" fill="#f87171" letter-spacing="1.2">STATIC VS DYNAMIC OBSTRUCTION</text>
  <text x="62" y="670" font-size="13" font-weight="700" fill="#e2e8f0">The two kinds of failure appear on different structures</text>

  <!-- Static explanation -->
  <rect x="62" y="684" width="694" height="64" rx="6" fill="#12161e" stroke="#10b981" stroke-width="0.6" opacity="0.9"/>
  <rect x="62" y="684" width="4" height="64" rx="2" fill="#10b981" opacity="0.8"/>

  <text x="80" y="702" font-size="11" font-weight="700" fill="#34d399">Static obstruction</text>
  <text x="200" y="702" font-size="10" font-weight="400" fill="#94a3b8">— two states have the same simplex transport but differ</text>
  <text x="628" y="702" font-size="10" font-weight="700" fill="#34d399">right now</text>

  <text x="80" y="720" font-size="10" font-weight="500" fill="#94a3b8">First witness:</text>
  <text x="164" y="720" font-size="10" font-weight="600" fill="#e2e8f0" class="mono">|A|=5 (cycle_of_triangles)</text>
  <text x="80" y="736" font-size="9" font-weight="400" fill="#64748b">Needs 5 edges — the cycle structure creates a "winding number" invisible to simplices</text>

  <!-- Dynamic explanation -->
  <rect x="62" y="758" width="694" height="64" rx="6" fill="#12161e" stroke="#f59e0b" stroke-width="0.6" opacity="0.9"/>
  <rect x="62" y="758" width="4" height="64" rx="2" fill="#f59e0b" opacity="0.8"/>

  <text x="80" y="776" font-size="11" font-weight="700" fill="#fbbf24">Dynamic obstruction</text>
  <text x="220" y="776" font-size="10" font-weight="400" fill="#94a3b8">— two states look the same now but differ</text>
  <text x="544" y="776" font-size="10" font-weight="700" fill="#fbbf24">in the future</text>

  <text x="80" y="794" font-size="10" font-weight="500" fill="#94a3b8">First witness:</text>
  <text x="164" y="794" font-size="10" font-weight="600" fill="#e2e8f0" class="mono">|A|=4 (mixed / tetra-local)</text>
  <text x="80" y="810" font-size="9" font-weight="400" fill="#64748b">Needs only 4 edges — hidden future divergence is easier to trigger than current-output divergence</text>

  <!-- Key takeaway -->
  <rect x="62" y="832" width="694" height="16" rx="3" fill="#2a1520" stroke="#f87171" stroke-width="0.5"/>
  <text x="72" y="844" font-size="9" font-weight="600" fill="#f87171">These two obstructions don't coincide — they appear on structurally different families.</text>


  <!-- Card: Compression -->
  <rect x="794" y="622" width="702" height="232" rx="10" fill="#1a1d27" filter="url(#cardShadow)"/>
  <rect x="794" y="622" width="702" height="232" rx="10" fill="none" stroke="#252a36" stroke-width="1"/>

  <text x="812" y="650" font-size="9" font-weight="700" fill="#818cf8" letter-spacing="1.2">GLOBAL LAYER COMPRESSION</text>
  <text x="812" y="670" font-size="13" font-weight="700" fill="#e2e8f0">Face-Order Parity on k4_pair_family</text>

  <!-- Compression visualization -->
  <rect x="812" y="684" width="666" height="86" rx="6" fill="#12161e" stroke="#252a36" stroke-width="0.8"/>

  <text x="832" y="704" font-size="10" font-weight="500" fill="#94a3b8">Runtime quotient:</text>
  <text x="944" y="704" font-size="12" font-weight="700" fill="#e2e8f0" class="mono">156</text>
  <text x="988" y="704" font-size="10" font-weight="400" fill="#64748b">states</text>

  <!-- Raw global bar -->
  <text x="832" y="724" font-size="10" font-weight="500" fill="#94a3b8">Raw global layer:</text>
  <rect x="960" y="714" width="380" height="14" rx="3" fill="url(#compBarFull)" opacity="0.35"/>
  <text x="1348" y="725" font-size="10" font-weight="600" fill="#94a3b8" class="mono">1,942</text>
  <text x="1398" y="725" font-size="9" font-weight="400" fill="#64748b">states</text>

  <!-- Compressed bar -->
  <text x="832" y="748" font-size="10" font-weight="600" fill="#818cf8">Cochain signature:</text>
  <rect x="960" y="738" width="347" height="14" rx="3" fill="url(#compBarComp)" opacity="0.7"/>
  <text x="1314" y="749" font-size="10" font-weight="700" fill="#818cf8" class="mono">1,774</text>
  <text x="1364" y="749" font-size="9" font-weight="400" fill="#64748b">exact</text>

  <!-- Compression ratio annotation -->
  <text x="960" y="764" font-size="9" font-weight="400" fill="#475569">↑ 8.6% compression while staying exact</text>

  <!-- Other candidates -->
  <rect x="812" y="780" width="666" height="64" rx="6" fill="#12161e" stroke="#252a36" stroke-width="0.6"/>
  <text x="832" y="798" font-size="10" font-weight="600" fill="#94a3b8">Other exact compressions tested:</text>

  <g font-size="9" fill="#64748b" class="mono">
    <text x="832" y="816">Sorted extra tokens</text>
    <text x="1012" y="816" fill="#818cf8" font-weight="600">1,774</text>
    <text x="1062" y="816" fill="#475569">exact</text>
    <text x="1140" y="816" fill="#64748b" font-family="Inter, sans-serif">Extra-token histogram</text>
    <text x="1320" y="816" fill="#818cf8" font-weight="600">1,774</text>
    <text x="1370" y="816" fill="#475569">exact</text>
  </g>
  <g font-size="9" fill="#64748b" class="mono">
    <text x="832" y="834">Per-component histogram</text>
    <text x="1012" y="834" fill="#818cf8" font-weight="600">1,774</text>
    <text x="1062" y="834" fill="#475569">exact</text>
    <text x="1140" y="834" fill="#64748b" font-family="Inter, sans-serif">Support-weighted hist.</text>
    <text x="1320" y="834" fill="#f59e0b" font-weight="600">1,828</text>
    <text x="1370" y="834" fill="#475569">exact</text>
  </g>


  <!-- ═══════════ BOTTOM STRIP ═══════════ -->
  <g transform="translate(44, 870)">
    <rect x="0" y="0" width="1452" height="26" rx="5" fill="#12161e" stroke="#1e293b" stroke-width="0.8"/>
    <text x="16" y="17" font-size="9" font-weight="400" fill="#475569">Reading: Broadcast stays flat. Simplex control adds no global structure. Global-cycle laws show static ≠ dynamic boundaries. Tetra-local laws show 4-edge obstructions.</text>
    <text x="1060" y="17" font-size="9" font-weight="400" fill="#475569">The global layer admits explicit compression beyond raw extra tokens.</text>
  </g>

  <!-- Figure label -->
  <text x="44" y="910" font-size="9" font-weight="400" fill="#334155">Figure 5 · Stark: Selective Memory Theory · Global Holonomy Atlas</text>
</svg>