<svg xmlns="http://www.w3.org/2000/svg" width="1120" height="660" viewBox="0 0 1120 660">
<style>
text { font-family: "Helvetica Neue", Helvetica, Arial, sans-serif; font-size: 12px; fill: #243b53; }
.title { font-size: 22px; font-weight: 700; fill: #102a43; }
.subtitle { font-size: 13px; fill: #52606d; }
.paneltitle { font-size: 15px; font-weight: 700; fill: #102a43; }
.axis { stroke: #9fb3c8; stroke-width: 1.2; }
.grid { stroke: #e5e7eb; stroke-width: 1; stroke-dasharray: 3 6; }
.panel { fill: #ffffff; stroke: #d9e2ec; stroke-width: 1; }
</style>
<rect x="0" y="0" width="1120" height="660" fill="#fbfbfd"/>
<text x="92" y="34" class="title">Exact Pareto Frontier Envelopes</text>
<text x="92" y="56" class="subtitle">Solid lines track best achievable answer fidelity. Dashed lines track best achievable witness fidelity.</text>
<line x1="814" y1="34" x2="840" y2="34" stroke="#102a43" stroke-width="3.5" stroke-linecap="round"/>
<text x="850" y="38">M_3</text>
<line x1="814" y1="54" x2="840" y2="54" stroke="#0b6e4f" stroke-width="3.5" stroke-linecap="round"/>
<text x="850" y="58">Q_(3,2)</text>
<line x1="814" y1="74" x2="840" y2="74" stroke="#c44536" stroke-width="3.5" stroke-linecap="round"/>
<text x="850" y="78">Q_(4,2)</text>
<line x1="814" y1="94" x2="840" y2="94" stroke="#22577a" stroke-width="3.5" stroke-linecap="round"/>
<text x="850" y="98">Q_(5,3)</text>
<line x1="814" y1="114" x2="840" y2="114" stroke="#f4a261" stroke-width="3.5" stroke-linecap="round"/>
<text x="850" y="118">causal_referee</text>
<line x1="814" y1="144" x2="840" y2="144" stroke="#52606d" stroke-width="3.5" stroke-linecap="round"/>
<line x1="814" y1="156" x2="840" y2="156" stroke="#52606d" stroke-width="2.2" stroke-dasharray="7 5" stroke-linecap="round"/>
<text x="850" y="148">answer</text>
<text x="850" y="160">witness</text>
<rect x="92.0" y="86" width="469.0" height="466" rx="18" ry="18" class="panel"/>
<text x="104.0" y="70" class="paneltitle">Forced decoding</text>
<text x="104.0" y="84" class="subtitle">quality preserved by output coercion</text>
<line x1="107.00" y1="86" x2="107.00" y2="552" class="grid"/>
<text x="103.00" y="574">0</text>
<line x1="216.75" y1="86" x2="216.75" y2="552" class="grid"/>
<text x="212.75" y="574">1</text>
<line x1="326.50" y1="86" x2="326.50" y2="552" class="grid"/>
<text x="322.50" y="574">2</text>
<line x1="436.25" y1="86" x2="436.25" y2="552" class="grid"/>
<text x="432.25" y="574">3</text>
<line x1="546.00" y1="86" x2="546.00" y2="552" class="grid"/>
<text x="542.00" y="574">4</text>
<line x1="92.0" y1="536.00" x2="561.0" y2="536.00" class="grid"/>
<text x="64.0" y="540.00">0.0</text>
<line x1="92.0" y1="492.20" x2="561.0" y2="492.20" class="grid"/>
<text x="64.0" y="496.20">0.1</text>
<line x1="92.0" y1="448.40" x2="561.0" y2="448.40" class="grid"/>
<text x="64.0" y="452.40">0.2</text>
<line x1="92.0" y1="404.60" x2="561.0" y2="404.60" class="grid"/>
<text x="64.0" y="408.60">0.3</text>
<line x1="92.0" y1="360.80" x2="561.0" y2="360.80" class="grid"/>
<text x="64.0" y="364.80">0.4</text>
<line x1="92.0" y1="317.00" x2="561.0" y2="317.00" class="grid"/>
<text x="64.0" y="321.00">0.5</text>
<line x1="92.0" y1="273.20" x2="561.0" y2="273.20" class="grid"/>
<text x="64.0" y="277.20">0.6</text>
<line x1="92.0" y1="229.40" x2="561.0" y2="229.40" class="grid"/>
<text x="64.0" y="233.40">0.7</text>
<line x1="92.0" y1="185.60" x2="561.0" y2="185.60" class="grid"/>
<text x="64.0" y="189.60">0.8</text>
<line x1="92.0" y1="141.80" x2="561.0" y2="141.80" class="grid"/>
<text x="64.0" y="145.80">0.9</text>
<line x1="92.0" y1="98.00" x2="561.0" y2="98.00" class="grid"/>
<text x="64.0" y="102.00">1.0</text>
<line x1="92.0" y1="552" x2="561.0" y2="552" class="axis"/>
<line x1="92.0" y1="86" x2="92.0" y2="552" class="axis"/>
<text x="314.50" y="636" class="subtitle">bits</text>
<polyline fill="none" stroke="#102a43" stroke-width="3.2" stroke-linecap="round" stroke-linejoin="round" points="107.00,194.09 216.75,142.69 326.50,106.94 436.25,98.00"/>
<polyline fill="none" stroke="#102a43" stroke-width="2.2" stroke-linecap="round" stroke-linejoin="round" stroke-dasharray="7 5" points="107.00,194.09 216.75,142.69 326.50,106.94 436.25,98.00"/>
<polyline fill="none" stroke="#0b6e4f" stroke-width="3.2" stroke-linecap="round" stroke-linejoin="round" points="107.00,186.17 216.75,140.66 326.50,103.41 436.25,98.00"/>
<polyline fill="none" stroke="#0b6e4f" stroke-width="2.2" stroke-linecap="round" stroke-linejoin="round" stroke-dasharray="7 5" points="107.00,242.65 216.75,166.64 326.50,118.13 436.25,98.00"/>
<polyline fill="none" stroke="#c44536" stroke-width="3.2" stroke-linecap="round" stroke-linejoin="round" points="107.00,180.19 216.75,139.91 326.50,104.87 436.25,98.00"/>
<polyline fill="none" stroke="#c44536" stroke-width="2.2" stroke-linecap="round" stroke-linejoin="round" stroke-dasharray="7 5" points="107.00,238.38 216.75,173.49 326.50,115.03 436.25,98.00"/>
<polyline fill="none" stroke="#22577a" stroke-width="3.2" stroke-linecap="round" stroke-linejoin="round" points="107.00,140.12 216.75,121.11 326.50,104.16 436.25,98.00 546.00,98.00"/>
<polyline fill="none" stroke="#22577a" stroke-width="2.2" stroke-linecap="round" stroke-linejoin="round" stroke-dasharray="7 5" points="107.00,252.69 216.75,183.12 326.50,120.04 436.25,101.21 546.00,98.00"/>
<polyline fill="none" stroke="#f4a261" stroke-width="3.2" stroke-linecap="round" stroke-linejoin="round" points="107.00,180.91 216.75,106.44 326.50,98.00 436.25,98.00 546.00,98.00"/>
<polyline fill="none" stroke="#f4a261" stroke-width="2.2" stroke-linecap="round" stroke-linejoin="round" stroke-dasharray="7 5" points="107.00,302.96 216.75,213.76 326.50,144.37 436.25,108.38 546.00,98.00"/>
<rect x="595.0" y="86" width="469.0" height="466" rx="18" ry="18" class="panel"/>
<text x="607.0" y="70" class="paneltitle">Breach-enabled decoding</text>
<text x="607.0" y="84" class="subtitle">quality preserved by abstention</text>
<line x1="610.00" y1="86" x2="610.00" y2="552" class="grid"/>
<text x="606.00" y="574">0</text>
<line x1="719.75" y1="86" x2="719.75" y2="552" class="grid"/>
<text x="715.75" y="574">1</text>
<line x1="829.50" y1="86" x2="829.50" y2="552" class="grid"/>
<text x="825.50" y="574">2</text>
<line x1="939.25" y1="86" x2="939.25" y2="552" class="grid"/>
<text x="935.25" y="574">3</text>
<line x1="1049.00" y1="86" x2="1049.00" y2="552" class="grid"/>
<text x="1045.00" y="574">4</text>
<line x1="595.0" y1="536.00" x2="1064.0" y2="536.00" class="grid"/>
<text x="567.0" y="540.00">0.0</text>
<line x1="595.0" y1="492.20" x2="1064.0" y2="492.20" class="grid"/>
<text x="567.0" y="496.20">0.1</text>
<line x1="595.0" y1="448.40" x2="1064.0" y2="448.40" class="grid"/>
<text x="567.0" y="452.40">0.2</text>
<line x1="595.0" y1="404.60" x2="1064.0" y2="404.60" class="grid"/>
<text x="567.0" y="408.60">0.3</text>
<line x1="595.0" y1="360.80" x2="1064.0" y2="360.80" class="grid"/>
<text x="567.0" y="364.80">0.4</text>
<line x1="595.0" y1="317.00" x2="1064.0" y2="317.00" class="grid"/>
<text x="567.0" y="321.00">0.5</text>
<line x1="595.0" y1="273.20" x2="1064.0" y2="273.20" class="grid"/>
<text x="567.0" y="277.20">0.6</text>
<line x1="595.0" y1="229.40" x2="1064.0" y2="229.40" class="grid"/>
<text x="567.0" y="233.40">0.7</text>
<line x1="595.0" y1="185.60" x2="1064.0" y2="185.60" class="grid"/>
<text x="567.0" y="189.60">0.8</text>
<line x1="595.0" y1="141.80" x2="1064.0" y2="141.80" class="grid"/>
<text x="567.0" y="145.80">0.9</text>
<line x1="595.0" y1="98.00" x2="1064.0" y2="98.00" class="grid"/>
<text x="567.0" y="102.00">1.0</text>
<line x1="595.0" y1="552" x2="1064.0" y2="552" class="axis"/>
<line x1="595.0" y1="86" x2="595.0" y2="552" class="axis"/>
<text x="817.50" y="636" class="subtitle">bits</text>
<polyline fill="none" stroke="#102a43" stroke-width="3.2" stroke-linecap="round" stroke-linejoin="round" points="610.00,504.71 719.75,243.26 829.50,120.35 939.25,98.00"/>
<polyline fill="none" stroke="#102a43" stroke-width="2.2" stroke-linecap="round" stroke-linejoin="round" stroke-dasharray="7 5" points="610.00,504.71 719.75,243.26 829.50,120.35 939.25,98.00"/>
<polyline fill="none" stroke="#0b6e4f" stroke-width="3.2" stroke-linecap="round" stroke-linejoin="round" points="610.00,527.89 719.75,331.87 829.50,161.69 939.25,98.00"/>
<polyline fill="none" stroke="#0b6e4f" stroke-width="2.2" stroke-linecap="round" stroke-linejoin="round" stroke-dasharray="7 5" points="610.00,527.89 719.75,331.87 829.50,161.69 939.25,98.00"/>
<polyline fill="none" stroke="#c44536" stroke-width="3.2" stroke-linecap="round" stroke-linejoin="round" points="610.00,531.13 719.75,355.93 829.50,180.19 939.25,98.00"/>
<polyline fill="none" stroke="#c44536" stroke-width="2.2" stroke-linecap="round" stroke-linejoin="round" stroke-dasharray="7 5" points="610.00,531.13 719.75,355.93 829.50,180.19 939.25,98.00"/>
<polyline fill="none" stroke="#22577a" stroke-width="3.2" stroke-linecap="round" stroke-linejoin="round" points="610.00,535.44 719.75,399.64 829.50,212.29 939.25,116.41 1049.00,98.00"/>
<polyline fill="none" stroke="#22577a" stroke-width="2.2" stroke-linecap="round" stroke-linejoin="round" stroke-dasharray="7 5" points="610.00,535.44 719.75,399.64 829.50,212.29 939.25,116.41 1049.00,98.00"/>
<polyline fill="none" stroke="#f4a261" stroke-width="3.2" stroke-linecap="round" stroke-linejoin="round" points="610.00,536.00 719.75,302.96 829.50,171.72 939.25,113.68 1049.00,98.00"/>
<polyline fill="none" stroke="#f4a261" stroke-width="2.2" stroke-linecap="round" stroke-linejoin="round" stroke-dasharray="7 5" points="610.00,536.00 719.75,302.96 829.50,171.72 939.25,113.68 1049.00,98.00"/>
</svg>