<svg xmlns="http://www.w3.org/2000/svg" width="1040" height="600" viewBox="0 0 1040 600">
<style>
text { font-family: Menlo, Monaco, Consolas, monospace; font-size: 11px; fill: #1f2933; }
.title { font-size: 14px; font-weight: 700; }
.axis { stroke: #9fb3c8; stroke-width: 1; }
.grid { stroke: #d9e2ec; stroke-width: 1; stroke-dasharray: 4 4; }
.panel { fill: #ffffff; stroke: #d9e2ec; stroke-width: 1; }
</style>
<rect x="0" y="0" width="1040" height="600" fill="#fbfbff"/>
<text x="88" y="26" class="title">Exact Pareto Frontier Envelopes</text>
<rect x="88.0" y="54" width="434.0" height="454" class="panel"/>
<text x="98.0" y="44" class="title">forced</text>
<line x1="103.00" y1="54" x2="103.00" y2="508" class="grid"/>
<text x="99.00" y="526">0</text>
<line x1="204.00" y1="54" x2="204.00" y2="508" class="grid"/>
<text x="200.00" y="526">1</text>
<line x1="305.00" y1="54" x2="305.00" y2="508" class="grid"/>
<text x="301.00" y="526">2</text>
<line x1="406.00" y1="54" x2="406.00" y2="508" class="grid"/>
<text x="402.00" y="526">3</text>
<line x1="507.00" y1="54" x2="507.00" y2="508" class="grid"/>
<text x="503.00" y="526">4</text>
<line x1="88.0" y1="492.00" x2="522.0" y2="492.00" class="grid"/>
<text x="60.0" y="496.00">0.0</text>
<line x1="88.0" y1="449.40" x2="522.0" y2="449.40" class="grid"/>
<text x="60.0" y="453.40">0.1</text>
<line x1="88.0" y1="406.80" x2="522.0" y2="406.80" class="grid"/>
<text x="60.0" y="410.80">0.2</text>
<line x1="88.0" y1="364.20" x2="522.0" y2="364.20" class="grid"/>
<text x="60.0" y="368.20">0.3</text>
<line x1="88.0" y1="321.60" x2="522.0" y2="321.60" class="grid"/>
<text x="60.0" y="325.60">0.4</text>
<line x1="88.0" y1="279.00" x2="522.0" y2="279.00" class="grid"/>
<text x="60.0" y="283.00">0.5</text>
<line x1="88.0" y1="236.40" x2="522.0" y2="236.40" class="grid"/>
<text x="60.0" y="240.40">0.6</text>
<line x1="88.0" y1="193.80" x2="522.0" y2="193.80" class="grid"/>
<text x="60.0" y="197.80">0.7</text>
<line x1="88.0" y1="151.20" x2="522.0" y2="151.20" class="grid"/>
<text x="60.0" y="155.20">0.8</text>
<line x1="88.0" y1="108.60" x2="522.0" y2="108.60" class="grid"/>
<text x="60.0" y="112.60">0.9</text>
<line x1="88.0" y1="66.00" x2="522.0" y2="66.00" class="grid"/>
<text x="60.0" y="70.00">1.0</text>
<line x1="88.0" y1="508" x2="522.0" y2="508" class="axis"/>
<line x1="88.0" y1="54" x2="88.0" y2="508" class="axis"/>
<text x="285.00" y="574">bits</text>
<polyline fill="none" stroke="#102a43" stroke-width="3" points="103.00,159.46 204.00,109.47 305.00,74.69 406.00,66.00"/>
<polyline fill="none" stroke="#102a43" stroke-width="2" stroke-dasharray="7 5" points="103.00,159.46 204.00,109.47 305.00,74.69 406.00,66.00"/>
<polyline fill="none" stroke="#0b6e4f" stroke-width="3" points="103.00,151.76 204.00,107.49 305.00,71.26 406.00,66.00"/>
<polyline fill="none" stroke="#0b6e4f" stroke-width="2" stroke-dasharray="7 5" points="103.00,206.69 204.00,132.76 305.00,85.58 406.00,66.00"/>
<polyline fill="none" stroke="#c44536" stroke-width="3" points="103.00,145.94 204.00,106.76 305.00,72.68 406.00,66.00"/>
<polyline fill="none" stroke="#c44536" stroke-width="2" stroke-dasharray="7 5" points="103.00,202.53 204.00,139.42 305.00,82.57 406.00,66.00"/>
<polyline fill="none" stroke="#22577a" stroke-width="3" points="103.00,106.97 204.00,88.48 305.00,71.99 406.00,66.00 507.00,66.00"/>
<polyline fill="none" stroke="#22577a" stroke-width="2" stroke-dasharray="7 5" points="103.00,216.46 204.00,148.79 305.00,87.44 406.00,69.12 507.00,66.00"/>
<polyline fill="none" stroke="#f4a261" stroke-width="3" points="103.00,146.64 204.00,74.21 305.00,66.00 406.00,66.00 507.00,66.00"/>
<polyline fill="none" stroke="#f4a261" stroke-width="2" stroke-dasharray="7 5" points="103.00,265.35 204.00,178.58 305.00,111.10 406.00,76.10 507.00,66.00"/>
<rect x="566.0" y="54" width="434.0" height="454" class="panel"/>
<text x="576.0" y="44" class="title">breach</text>
<line x1="581.00" y1="54" x2="581.00" y2="508" class="grid"/>
<text x="577.00" y="526">0</text>
<line x1="682.00" y1="54" x2="682.00" y2="508" class="grid"/>
<text x="678.00" y="526">1</text>
<line x1="783.00" y1="54" x2="783.00" y2="508" class="grid"/>
<text x="779.00" y="526">2</text>
<line x1="884.00" y1="54" x2="884.00" y2="508" class="grid"/>
<text x="880.00" y="526">3</text>
<line x1="985.00" y1="54" x2="985.00" y2="508" class="grid"/>
<text x="981.00" y="526">4</text>
<line x1="566.0" y1="492.00" x2="1000.0" y2="492.00" class="grid"/>
<text x="538.0" y="496.00">0.0</text>
<line x1="566.0" y1="449.40" x2="1000.0" y2="449.40" class="grid"/>
<text x="538.0" y="453.40">0.1</text>
<line x1="566.0" y1="406.80" x2="1000.0" y2="406.80" class="grid"/>
<text x="538.0" y="410.80">0.2</text>
<line x1="566.0" y1="364.20" x2="1000.0" y2="364.20" class="grid"/>
<text x="538.0" y="368.20">0.3</text>
<line x1="566.0" y1="321.60" x2="1000.0" y2="321.60" class="grid"/>
<text x="538.0" y="325.60">0.4</text>
<line x1="566.0" y1="279.00" x2="1000.0" y2="279.00" class="grid"/>
<text x="538.0" y="283.00">0.5</text>
<line x1="566.0" y1="236.40" x2="1000.0" y2="236.40" class="grid"/>
<text x="538.0" y="240.40">0.6</text>
<line x1="566.0" y1="193.80" x2="1000.0" y2="193.80" class="grid"/>
<text x="538.0" y="197.80">0.7</text>
<line x1="566.0" y1="151.20" x2="1000.0" y2="151.20" class="grid"/>
<text x="538.0" y="155.20">0.8</text>
<line x1="566.0" y1="108.60" x2="1000.0" y2="108.60" class="grid"/>
<text x="538.0" y="112.60">0.9</text>
<line x1="566.0" y1="66.00" x2="1000.0" y2="66.00" class="grid"/>
<text x="538.0" y="70.00">1.0</text>
<line x1="566.0" y1="508" x2="1000.0" y2="508" class="axis"/>
<line x1="566.0" y1="54" x2="566.0" y2="508" class="axis"/>
<text x="763.00" y="574">bits</text>
<polyline fill="none" stroke="#102a43" stroke-width="3" points="581.00,461.57 682.00,207.28 783.00,87.73 884.00,66.00"/>
<polyline fill="none" stroke="#102a43" stroke-width="2" stroke-dasharray="7 5" points="581.00,461.57 682.00,207.28 783.00,87.73 884.00,66.00"/>
<polyline fill="none" stroke="#0b6e4f" stroke-width="3" points="581.00,484.11 682.00,293.46 783.00,127.94 884.00,66.00"/>
<polyline fill="none" stroke="#0b6e4f" stroke-width="2" stroke-dasharray="7 5" points="581.00,484.11 682.00,293.46 783.00,127.94 884.00,66.00"/>
<polyline fill="none" stroke="#c44536" stroke-width="3" points="581.00,487.27 682.00,316.87 783.00,145.94 884.00,66.00"/>
<polyline fill="none" stroke="#c44536" stroke-width="2" stroke-dasharray="7 5" points="581.00,487.27 682.00,316.87 783.00,145.94 884.00,66.00"/>
<polyline fill="none" stroke="#22577a" stroke-width="3" points="581.00,491.46 682.00,359.38 783.00,177.16 884.00,83.90 985.00,66.00"/>
<polyline fill="none" stroke="#22577a" stroke-width="2" stroke-dasharray="7 5" points="581.00,491.46 682.00,359.38 783.00,177.16 884.00,83.90 985.00,66.00"/>
<polyline fill="none" stroke="#f4a261" stroke-width="3" points="581.00,492.00 682.00,265.35 783.00,137.70 884.00,81.25 985.00,66.00"/>
<polyline fill="none" stroke="#f4a261" stroke-width="2" stroke-dasharray="7 5" points="581.00,492.00 682.00,265.35 783.00,137.70 884.00,81.25 985.00,66.00"/>
<line x1="762" y1="42" x2="786" y2="42" stroke="#102a43" stroke-width="3"/>
<line x1="762" y1="49" x2="786" y2="49" stroke="#102a43" stroke-width="2" stroke-dasharray="7 5"/>
<text x="796" y="47">M_3</text>
<line x1="762" y1="60" x2="786" y2="60" stroke="#0b6e4f" stroke-width="3"/>
<line x1="762" y1="67" x2="786" y2="67" stroke="#0b6e4f" stroke-width="2" stroke-dasharray="7 5"/>
<text x="796" y="65">Q_(3,2)</text>
<line x1="762" y1="78" x2="786" y2="78" stroke="#c44536" stroke-width="3"/>
<line x1="762" y1="85" x2="786" y2="85" stroke="#c44536" stroke-width="2" stroke-dasharray="7 5"/>
<text x="796" y="83">Q_(4,2)</text>
<line x1="762" y1="96" x2="786" y2="96" stroke="#22577a" stroke-width="3"/>
<line x1="762" y1="103" x2="786" y2="103" stroke="#22577a" stroke-width="2" stroke-dasharray="7 5"/>
<text x="796" y="101">Q_(5,3)</text>
<line x1="762" y1="114" x2="786" y2="114" stroke="#f4a261" stroke-width="3"/>
<line x1="762" y1="121" x2="786" y2="121" stroke="#f4a261" stroke-width="2" stroke-dasharray="7 5"/>
<text x="796" y="119">causal_referee</text>
<text x="762" y="548">solid = best answer</text>
<text x="762" y="564">dashed = best witness</text>
</svg>