<svg xmlns="http://www.w3.org/2000/svg" width="980" height="280" viewBox="0 0 980 280">
<style>
text { font-family: Menlo, Monaco, Consolas, monospace; font-size: 11px; fill: #1f2933; }
.title { font-size: 14px; font-weight: 700; }
</style>
<rect x="0" y="0" width="980" height="280" fill="#fffdf8"/>
<text x="42" y="24" class="title">Overlapping Adjustment Families: Same Variables, Different Hypergraphs</text>
<rect x="42" y="54" width="430" height="186" fill="#ffffff" stroke="#d9e2ec" stroke-width="1"/>
<text x="52" y="42" class="title">n5_m732</text>
<text x="52" y="72">family [[0, 1], [0, 2]]</text>
<line x1="152" y1="156" x2="248" y2="114" stroke="#c44536" stroke-width="5" stroke-linecap="round" opacity="0.75"/>
<line x1="152" y1="156" x2="344" y2="156" stroke="#c44536" stroke-width="5" stroke-linecap="round" opacity="0.75"/>
<circle cx="152" cy="156" r="18" fill="#22577a"/>
<text x="148" y="160" fill="#ffffff">0</text>
<circle cx="248" cy="114" r="18" fill="#22577a"/>
<text x="244" y="118" fill="#ffffff">1</text>
<circle cx="344" cy="156" r="18" fill="#22577a"/>
<text x="340" y="160" fill="#ffffff">2</text>
<text x="52" y="208">survivors (0,2): [[0, 2]]</text>
<rect x="516" y="54" width="430" height="186" fill="#ffffff" stroke="#d9e2ec" stroke-width="1"/>
<text x="526" y="42" class="title">n5_m746</text>
<text x="526" y="72">family [[0, 1], [1, 2]]</text>
<line x1="626" y1="156" x2="722" y2="114" stroke="#c44536" stroke-width="5" stroke-linecap="round" opacity="0.75"/>
<line x1="722" y1="114" x2="818" y2="156" stroke="#c44536" stroke-width="5" stroke-linecap="round" opacity="0.75"/>
<circle cx="626" cy="156" r="18" fill="#22577a"/>
<text x="622" y="160" fill="#ffffff">0</text>
<circle cx="722" cy="114" r="18" fill="#22577a"/>
<text x="718" y="118" fill="#ffffff">1</text>
<circle cx="818" cy="156" r="18" fill="#22577a"/>
<text x="814" y="160" fill="#ffffff">2</text>
<text x="526" y="208">survivors (0,2): []</text>
</svg>