<svg xmlns="http://www.w3.org/2000/svg" width="1600" height="1168" viewBox="0 0 1600 1168">
<style>
text { font-family: 'Inter', 'Segoe UI', Arial, sans-serif; font-size: 13px; fill: #243b53; }
.title { font-size: 24px; font-weight: 700; fill: #102a43; }
.subtitle { font-size: 14px; fill: #52606d; }
.panel { fill: #ffffff; stroke: #d9e2ec; stroke-width: 1.2; rx: 18; ry: 18; }
.card { fill: #ffffff; stroke: #d9e2ec; stroke-width: 1.2; rx: 16; ry: 16; }
.header { font-size: 12px; font-weight: 700; letter-spacing: 0.08em; text-transform: uppercase; fill: #486581; }
.section { font-size: 17px; font-weight: 700; fill: #102a43; }
.metric { font-size: 30px; font-weight: 700; fill: #0f172a; }
.small { font-size: 12px; fill: #52606d; }
.cell { font-size: 12px; fill: #102a43; }
.mono { font-family: 'SFMono-Regular', Menlo, Monaco, Consolas, monospace; font-size: 12px; fill: #102a43; }
.control-row { fill: #f4f7f9; }
.pair-row { fill: #eff6ff; }
.simplex-row { fill: #f7efff; }
.winner-row { fill: #eefbf3; }
.divider { stroke: #e5e7eb; stroke-width: 1; }
.chip-flat { fill: #f1f5f9; stroke: #cbd2d9; stroke-width: 1; }
.chip-assign { fill: #dbeafe; stroke: #93c5fd; stroke-width: 1; }
.chip-pair { fill: #ede9fe; stroke: #c4b5fd; stroke-width: 1; }
.chip-hidden { fill: #dcfce7; stroke: #86efac; stroke-width: 1; }
</style>
<rect x="0" y="0" width="1600" height="1168" fill="#f7fafc"/>
<text x="44" y="42" class="title">Pair vs Simplex Holonomy Search</text>
<text x="44" y="66" class="subtitle">The exact base-grid search for the first deterministic law where assignment plus pair transport is no longer enough.</text>
<rect x="44.0" y="92" width="493.3333333333333" height="126" class="card"/>
<rect x="553.3333333333333" y="92" width="493.3333333333333" height="126" class="card"/>
<rect x="1062.6666666666665" y="92" width="493.3333333333333" height="126" class="card"/>
<text x="62" y="118" class="header">Scan</text>
<text x="62" y="152" class="metric">124</text>
<text x="144" y="152" class="section">families per semantics</text>
<text x="62" y="178" class="small">Grid: p in (2, 3, 4), k ≤ 3; 11 local law families.</text>
<text x="62" y="200" class="small">Status counts: 2 controls, 5 assignment-only, 0 pair splits, 4 hidden-future winners.</text>
<text x="571.3333333333333" y="118" class="header">Boundary</text>
<text x="571.3333333333333" y="146" class="section">First pair-insufficient split</text>
<text x="571.3333333333333" y="174" class="small">pair_phase_shared_other_live_block_lower__feedback_orient_freeze_pairs on triangle @ (p=3, k=2)</text>
<text x="571.3333333333333" y="196" class="small">counts = 24 / 27 / 45 / 58</text>
<text x="1080.6666666666665" y="118" class="header">Interpretation</text>
<text x="1080.6666666666665" y="146" class="section">Runtime object moves to the 2-simplex layer</text>
<text x="1080.6666666666665" y="174" class="small">Pair-only laws still stop at assignment curvature. The first exact boundary appears on the triangle family, where simplex-local transport survives after assignment and pair summaries already agree.</text>
<text x="1080.6666666666665" y="196" class="small">The figure below separates controls, pair-only laws, and the first simplex winners.</text>
<rect x="44" y="246" width="1512" height="500" class="panel"/>
<text x="62" y="274" class="header">Semantic Library</text>
<text x="62" y="298" class="small">Seed quotients are runtime / assignment / pair / simplex on the smallest family where each semantics first shows structure.</text>
<text x="64" y="328" class="header">Semantics</text>
<text x="439" y="328" class="header">Kind</text>
<text x="584" y="328" class="header">|pair| / |simplex|</text>
<text x="699" y="328" class="header">Seed q</text>
<text x="884" y="328" class="header">First pair split</text>
<text x="1109" y="328" class="header">Hidden beyond pair</text>
<text x="1344" y="328" class="header">Holonomy rank</text>
<text x="1479" y="328" class="header">Status</text>
<line x1="62" y1="338" x2="1538" y2="338" class="divider"/>
<rect x="56" y="344" width="1488" height="28" rx="12" ry="12" class="control-row"/>
<text x="64" y="362" class="cell">Broadcast</text>
<text x="439" y="362" class="cell">control</text>
<text x="584" y="362" class="cell">1 / 1</text>
<text x="699" y="362" class="mono">8 / 8 / 8 / 8</text>
<text x="884" y="362" class="cell">none</text>
<text x="1109" y="362" class="cell">none</text>
<text x="1344" y="362" class="cell">1 / 1</text>
<rect x="1471" y="347" width="118" height="22" rx="11" ry="11" class="chip-flat"/>
<text x="1483" y="362" class="cell">flat</text>
<rect x="56" y="382" width="1488" height="28" rx="12" ry="12" class="control-row"/>
<text x="64" y="400" class="cell">Committed Allocation</text>
<text x="439" y="400" class="cell">control</text>
<text x="584" y="400" class="cell">1 / 1</text>
<text x="699" y="400" class="mono">11 / 12 / 12 / 12</text>
<text x="884" y="400" class="cell">none</text>
<text x="1109" y="400" class="cell">none</text>
<text x="1344" y="400" class="cell">1 / 1</text>
<rect x="1471" y="385" width="118" height="22" rx="11" ry="11" class="chip-flat"/>
<text x="1483" y="400" class="cell">flat</text>
<rect x="56" y="420" width="1488" height="28" rx="12" ry="12" class="pair-row"/>
<text x="64" y="438" class="cell">Pair Phase XL</text>
<text x="439" y="438" class="cell">pair_only</text>
<text x="584" y="438" class="cell">2 / 1</text>
<text x="699" y="438" class="mono">11 / 12 / 16 / 16</text>
<text x="884" y="438" class="cell">none</text>
<text x="1109" y="438" class="cell">none</text>
<text x="1344" y="438" class="cell">1 / 1</text>
<rect x="1471" y="423" width="118" height="22" rx="11" ry="11" class="chip-assign"/>
<text x="1483" y="438" class="cell">assignment only</text>
<rect x="56" y="458" width="1488" height="28" rx="12" ry="12" class="pair-row"/>
<text x="64" y="476" class="cell">Pair Phase SL</text>
<text x="439" y="476" class="cell">pair_only</text>
<text x="584" y="476" class="cell">2 / 1</text>
<text x="699" y="476" class="mono">9 / 12 / 16 / 16</text>
<text x="884" y="476" class="cell">none</text>
<text x="1109" y="476" class="cell">none</text>
<text x="1344" y="476" class="cell">1 / 1</text>
<rect x="1471" y="461" width="118" height="22" rx="11" ry="11" class="chip-assign"/>
<text x="1483" y="476" class="cell">assignment only</text>
<rect x="56" y="496" width="1488" height="28" rx="12" ry="12" class="pair-row"/>
<text x="64" y="514" class="cell">Pair Phase AL</text>
<text x="439" y="514" class="cell">pair_only</text>
<text x="584" y="514" class="cell">2 / 1</text>
<text x="699" y="514" class="mono">10 / 12 / 14 / 14</text>
<text x="884" y="514" class="cell">none</text>
<text x="1109" y="514" class="cell">none</text>
<text x="1344" y="514" class="cell">1 / 1</text>
<rect x="1471" y="499" width="118" height="22" rx="11" ry="11" class="chip-assign"/>
<text x="1483" y="514" class="cell">assignment only</text>
<rect x="56" y="534" width="1488" height="28" rx="12" ry="12" class="winner-row"/>
<text x="64" y="552" class="cell">Shared Pair Phase + 2-Live Orient</text>
<text x="439" y="552" class="cell">pair_plus_simplex</text>
<text x="584" y="552" class="cell">2 / 4</text>
<text x="699" y="552" class="mono">9 / 12 / 16 / 16</text>
<text x="884" y="552" class="cell">triangle @ (p=3, k=2)</text>
<text x="1109" y="552" class="cell">triangle @ (p=3, k=2)</text>
<text x="1344" y="552" class="cell">2 / 1</text>
<rect x="1471" y="537" width="118" height="22" rx="11" ry="11" class="chip-hidden"/>
<text x="1483" y="552" class="cell">hidden future</text>
<rect x="56" y="572" width="1488" height="28" rx="12" ry="12" class="winner-row"/>
<text x="64" y="590" class="cell">Shared Pair Phase + 3-Live Orient</text>
<text x="439" y="590" class="cell">pair_plus_simplex</text>
<text x="584" y="590" class="cell">2 / 4</text>
<text x="699" y="590" class="mono">9 / 12 / 16 / 16</text>
<text x="884" y="590" class="cell">overlap_star @ (p=4, k=2)</text>
<text x="1109" y="590" class="cell">overlap_star @ (p=4, k=2)</text>
<text x="1344" y="590" class="cell">2 / 1</text>
<rect x="1471" y="575" width="118" height="22" rx="11" ry="11" class="chip-hidden"/>
<text x="1483" y="590" class="cell">hidden future</text>
<rect x="56" y="610" width="1488" height="28" rx="12" ry="12" class="winner-row"/>
<text x="64" y="628" class="cell">Shared Pair Phase + 2/3-Live Orient</text>
<text x="439" y="628" class="cell">pair_plus_simplex</text>
<text x="584" y="628" class="cell">2 / 4</text>
<text x="699" y="628" class="mono">9 / 12 / 16 / 16</text>
<text x="884" y="628" class="cell">triangle @ (p=3, k=2)</text>
<text x="1109" y="628" class="cell">triangle @ (p=3, k=2)</text>
<text x="1344" y="628" class="cell">2 / 1</text>
<rect x="1471" y="613" width="118" height="22" rx="11" ry="11" class="chip-hidden"/>
<text x="1483" y="628" class="cell">hidden future</text>
<rect x="56" y="648" width="1488" height="28" rx="12" ry="12" class="pair-row"/>
<text x="64" y="666" class="cell">Shared Pair Phase + Commutator Toggle</text>
<text x="439" y="666" class="cell">pair_plus_simplex</text>
<text x="584" y="666" class="cell">2 / 2</text>
<text x="699" y="666" class="mono">9 / 12 / 16 / 16</text>
<text x="884" y="666" class="cell">none</text>
<text x="1109" y="666" class="cell">none</text>
<text x="1344" y="666" class="cell">1 / 1</text>
<rect x="1471" y="651" width="118" height="22" rx="11" ry="11" class="chip-assign"/>
<text x="1483" y="666" class="cell">assignment only</text>
<rect x="56" y="686" width="1488" height="28" rx="12" ry="12" class="pair-row"/>
<text x="64" y="704" class="cell">Shared Pair Phase + Triangle Debt</text>
<text x="439" y="704" class="cell">triangle_debt</text>
<text x="584" y="704" class="cell">2 / 3</text>
<text x="699" y="704" class="mono">9 / 12 / 16 / 16</text>
<text x="884" y="704" class="cell">none</text>
<text x="1109" y="704" class="cell">none</text>
<text x="1344" y="704" class="cell">1 / 1</text>
<rect x="1471" y="689" width="118" height="22" rx="11" ry="11" class="chip-assign"/>
<text x="1483" y="704" class="cell">assignment only</text>
<rect x="56" y="724" width="1488" height="28" rx="12" ry="12" class="winner-row"/>
<text x="64" y="742" class="cell">Shared Pair Phase + Feedback Orient</text>
<text x="439" y="742" class="cell">higher_local_interaction</text>
<text x="584" y="742" class="cell">2 / 4</text>
<text x="699" y="742" class="mono">9 / 12 / 16 / 16</text>
<text x="884" y="742" class="cell">triangle @ (p=3, k=2)</text>
<text x="1109" y="742" class="cell">triangle @ (p=3, k=2)</text>
<text x="1344" y="742" class="cell">4 / 1</text>
<rect x="1471" y="727" width="118" height="22" rx="11" ry="11" class="chip-hidden"/>
<text x="1483" y="742" class="cell">hidden future</text>
<rect x="44.0" y="770" width="748.0" height="320" class="card"/>
<rect x="808.0" y="770" width="748.0" height="320" class="card"/>
<text x="62" y="798" class="header">First Pair-Insufficient Witness</text>
<text x="62" y="828" class="section">pair_phase_shared_other_live_block_lower__feedback_orient_freeze_pairs</text>
<text x="62" y="852" class="small">triangle family at (p=3, k=2); counts 24 / 27 / 45 / 58.</text>
<text x="62" y="888" class="mono">u = [2->(1, 2), 3->(1, 3)]</text>
<text x="62" y="912" class="mono">v = [3->(1, 3), 2->(1, 2)]</text>
<text x="62" y="936" class="mono">w = [1->(1, 2)]</text>
<text x="62" y="970" class="small">Shared pair fiber: ((-1, 0, 1), (0, 0, 0))</text>
<text x="62" y="994" class="small">Current outputs: ((1,), (1,)) vs ((1,), (1,))</text>
<text x="62" y="1018" class="small">Future outputs: ((),) vs ()</text>
<text x="826.0" y="798" class="header">First Hidden Future Beyond Pair</text>
<text x="826.0" y="828" class="section">pair_phase_shared_other_live_block_lower__feedback_orient_freeze_pairs</text>
<text x="826.0" y="852" class="small">triangle family at (p=3, k=2). This is the first witness where the future remembers simplex-local transport after the pair fiber already agrees.</text>
<text x="826.0" y="888" class="mono">u = [2->(1, 2), 3->(1, 3)]</text>
<text x="826.0" y="912" class="mono">v = [3->(1, 3), 2->(1, 2)]</text>
<text x="826.0" y="936" class="mono">w = [1->(1, 2)]</text>
<text x="826.0" y="970" class="small">Shared pair fiber: ((-1, 0, 1), (0, 0, 0))</text>
<text x="826.0" y="994" class="small">Shared current output: ((1,), (1,))</text>
<text x="826.0" y="1018" class="small">Future outputs after non-empty w: ((),) vs ()</text>
<text x="44" y="1114" class="small">Canonical first-order for ties: p, k, family_count, pair_alphabet_size, simplex_alphabet_size, reachable_state_count, witness_length, family, semantics.</text>
<text x="44" y="1136" class="small">Reading: broadcast stays flat; committed allocation adds coordinate curvature; pair-only laws still stop at the pair layer; simplex-local laws create the first exact boundary beyond pair transport.</text>
</svg>