<svg xmlns="http://www.w3.org/2000/svg" width="730" height="614" viewBox="0 0 730 614">
<style>
text { font-family: Menlo, Monaco, Consolas, monospace; font-size: 11px; fill: #1f2933; }
.axis { stroke: #94a3b8; stroke-width: 1; }
.tick { stroke: #334155; stroke-width: 2; }
</style>
<text x="180" y="24">Policy: breach / Scheme: cluster_witness</text>
<text x="12" y="24">Budget bits</text>
<text x="197.0" y="41" text-anchor="middle">1</text>
<text x="231.0" y="41" text-anchor="middle">2</text>
<text x="265.0" y="41" text-anchor="middle">3</text>
<text x="299.0" y="41" text-anchor="middle">4</text>
<text x="333.0" y="41" text-anchor="middle">5</text>
<text x="367.0" y="41" text-anchor="middle">6</text>
<text x="401.0" y="41" text-anchor="middle">7</text>
<text x="435.0" y="41" text-anchor="middle">8</text>
<text x="469.0" y="41" text-anchor="middle">9</text>
<text x="503.0" y="41" text-anchor="middle">10</text>
<text x="537.0" y="41" text-anchor="middle">11</text>
<text x="571.0" y="41" text-anchor="middle">12</text>
<text x="605.0" y="41" text-anchor="middle">13</text>
<text x="639.0" y="41" text-anchor="middle">14</text>
<text x="673.0" y="41" text-anchor="middle">15</text>
<text x="12" y="71.0">M_1</text>
<line class="axis" x1="180" y1="55" x2="690" y2="55" />
<text x="12" y="95.0">M_2</text>
<line class="axis" x1="180" y1="79" x2="690" y2="79" />
<text x="12" y="119.0">M_3</text>
<line class="axis" x1="180" y1="103" x2="690" y2="103" />
<text x="12" y="143.0">M_4</text>
<line class="axis" x1="180" y1="127" x2="690" y2="127" />
<text x="12" y="167.0">M_5</text>
<line class="axis" x1="180" y1="151" x2="690" y2="151" />
<text x="12" y="191.0">Q_(1,1)</text>
<line class="axis" x1="180" y1="175" x2="690" y2="175" />
<text x="12" y="215.0">Q_(1,2)</text>
<line class="axis" x1="180" y1="199" x2="690" y2="199" />
<text x="12" y="239.0">Q_(1,3)</text>
<line class="axis" x1="180" y1="223" x2="690" y2="223" />
<text x="12" y="263.0">Q_(2,1)</text>
<line class="axis" x1="180" y1="247" x2="690" y2="247" />
<text x="12" y="287.0">Q_(2,2)</text>
<line class="axis" x1="180" y1="271" x2="690" y2="271" />
<text x="12" y="311.0">Q_(2,3)</text>
<line class="axis" x1="180" y1="295" x2="690" y2="295" />
<text x="12" y="335.0">Q_(3,1)</text>
<line class="axis" x1="180" y1="319" x2="690" y2="319" />
<text x="12" y="359.0">Q_(3,2)</text>
<line class="axis" x1="180" y1="343" x2="690" y2="343" />
<text x="12" y="383.0">Q_(3,3)</text>
<line class="axis" x1="180" y1="367" x2="690" y2="367" />
<text x="12" y="407.0">Q_(4,1)</text>
<line class="axis" x1="180" y1="391" x2="690" y2="391" />
<text x="12" y="431.0">Q_(4,2)</text>
<line class="axis" x1="180" y1="415" x2="690" y2="415" />
<text x="12" y="455.0">Q_(4,3)</text>
<line class="axis" x1="180" y1="439" x2="690" y2="439" />
<text x="12" y="479.0">Q_(5,1)</text>
<line class="axis" x1="180" y1="463" x2="690" y2="463" />
<text x="12" y="503.0">Q_(5,2)</text>
<line class="axis" x1="180" y1="487" x2="690" y2="487" />
<text x="12" y="527.0">Q_(5,3)</text>
<line class="axis" x1="180" y1="511" x2="690" y2="511" />
<text x="12" y="551.0">causal_referee</text>
<line class="axis" x1="180" y1="535" x2="690" y2="535" />
<rect x="180" y="55" width="34" height="24" fill="#e9c46a" stroke="#ffffff" stroke-width="1" />
<rect x="214" y="55" width="34" height="24" fill="#e9c46a" stroke="#ffffff" stroke-width="1" />
<rect x="248" y="55" width="34" height="24" fill="#2a9d8f" stroke="#ffffff" stroke-width="1" />
<rect x="282" y="55" width="34" height="24" fill="#2a9d8f" stroke="#ffffff" stroke-width="1" />
<rect x="316" y="55" width="34" height="24" fill="#2a9d8f" stroke="#ffffff" stroke-width="1" />
<rect x="350" y="55" width="34" height="24" fill="#2a9d8f" stroke="#ffffff" stroke-width="1" />
<rect x="384" y="55" width="34" height="24" fill="#2a9d8f" stroke="#ffffff" stroke-width="1" />
<rect x="418" y="55" width="34" height="24" fill="#2a9d8f" stroke="#ffffff" stroke-width="1" />
<rect x="180" y="79" width="34" height="24" fill="#e9c46a" stroke="#ffffff" stroke-width="1" />
<rect x="214" y="79" width="34" height="24" fill="#e9c46a" stroke="#ffffff" stroke-width="1" />
<rect x="248" y="79" width="34" height="24" fill="#e9c46a" stroke="#ffffff" stroke-width="1" />
<rect x="282" y="79" width="34" height="24" fill="#2a9d8f" stroke="#ffffff" stroke-width="1" />
<rect x="316" y="79" width="34" height="24" fill="#2a9d8f" stroke="#ffffff" stroke-width="1" />
<rect x="350" y="79" width="34" height="24" fill="#2a9d8f" stroke="#ffffff" stroke-width="1" />
<rect x="384" y="79" width="34" height="24" fill="#2a9d8f" stroke="#ffffff" stroke-width="1" />
<rect x="418" y="79" width="34" height="24" fill="#2a9d8f" stroke="#ffffff" stroke-width="1" />
<rect x="452" y="79" width="34" height="24" fill="#2a9d8f" stroke="#ffffff" stroke-width="1" />
<rect x="180" y="103" width="34" height="24" fill="#e9c46a" stroke="#ffffff" stroke-width="1" />
<rect x="214" y="103" width="34" height="24" fill="#e9c46a" stroke="#ffffff" stroke-width="1" />
<rect x="248" y="103" width="34" height="24" fill="#e9c46a" stroke="#ffffff" stroke-width="1" />
<rect x="282" y="103" width="34" height="24" fill="#2a9d8f" stroke="#ffffff" stroke-width="1" />
<rect x="316" y="103" width="34" height="24" fill="#2a9d8f" stroke="#ffffff" stroke-width="1" />
<rect x="350" y="103" width="34" height="24" fill="#2a9d8f" stroke="#ffffff" stroke-width="1" />
<rect x="384" y="103" width="34" height="24" fill="#2a9d8f" stroke="#ffffff" stroke-width="1" />
<rect x="418" y="103" width="34" height="24" fill="#2a9d8f" stroke="#ffffff" stroke-width="1" />
<rect x="452" y="103" width="34" height="24" fill="#2a9d8f" stroke="#ffffff" stroke-width="1" />
<rect x="180" y="127" width="34" height="24" fill="#e9c46a" stroke="#ffffff" stroke-width="1" />
<rect x="214" y="127" width="34" height="24" fill="#e9c46a" stroke="#ffffff" stroke-width="1" />
<rect x="248" y="127" width="34" height="24" fill="#e9c46a" stroke="#ffffff" stroke-width="1" />
<rect x="282" y="127" width="34" height="24" fill="#e9c46a" stroke="#ffffff" stroke-width="1" />
<rect x="316" y="127" width="34" height="24" fill="#2a9d8f" stroke="#ffffff" stroke-width="1" />
<rect x="350" y="127" width="34" height="24" fill="#2a9d8f" stroke="#ffffff" stroke-width="1" />
<rect x="384" y="127" width="34" height="24" fill="#2a9d8f" stroke="#ffffff" stroke-width="1" />
<rect x="418" y="127" width="34" height="24" fill="#2a9d8f" stroke="#ffffff" stroke-width="1" />
<rect x="452" y="127" width="34" height="24" fill="#2a9d8f" stroke="#ffffff" stroke-width="1" />
<rect x="486" y="127" width="34" height="24" fill="#2a9d8f" stroke="#ffffff" stroke-width="1" />
<rect x="180" y="151" width="34" height="24" fill="#e9c46a" stroke="#ffffff" stroke-width="1" />
<rect x="214" y="151" width="34" height="24" fill="#e9c46a" stroke="#ffffff" stroke-width="1" />
<rect x="248" y="151" width="34" height="24" fill="#e9c46a" stroke="#ffffff" stroke-width="1" />
<rect x="282" y="151" width="34" height="24" fill="#e9c46a" stroke="#ffffff" stroke-width="1" />
<rect x="316" y="151" width="34" height="24" fill="#2a9d8f" stroke="#ffffff" stroke-width="1" />
<rect x="350" y="151" width="34" height="24" fill="#2a9d8f" stroke="#ffffff" stroke-width="1" />
<rect x="384" y="151" width="34" height="24" fill="#2a9d8f" stroke="#ffffff" stroke-width="1" />
<rect x="418" y="151" width="34" height="24" fill="#2a9d8f" stroke="#ffffff" stroke-width="1" />
<rect x="452" y="151" width="34" height="24" fill="#2a9d8f" stroke="#ffffff" stroke-width="1" />
<rect x="486" y="151" width="34" height="24" fill="#2a9d8f" stroke="#ffffff" stroke-width="1" />
<rect x="180" y="175" width="34" height="24" fill="#e9c46a" stroke="#ffffff" stroke-width="1" />
<rect x="214" y="175" width="34" height="24" fill="#2a9d8f" stroke="#ffffff" stroke-width="1" />
<rect x="248" y="175" width="34" height="24" fill="#2a9d8f" stroke="#ffffff" stroke-width="1" />
<rect x="282" y="175" width="34" height="24" fill="#2a9d8f" stroke="#ffffff" stroke-width="1" />
<rect x="316" y="175" width="34" height="24" fill="#2a9d8f" stroke="#ffffff" stroke-width="1" />
<rect x="350" y="175" width="34" height="24" fill="#2a9d8f" stroke="#ffffff" stroke-width="1" />
<rect x="384" y="175" width="34" height="24" fill="#2a9d8f" stroke="#ffffff" stroke-width="1" />
<rect x="418" y="175" width="34" height="24" fill="#2a9d8f" stroke="#ffffff" stroke-width="1" />
<rect x="180" y="247" width="34" height="24" fill="#e9c46a" stroke="#ffffff" stroke-width="1" />
<rect x="214" y="247" width="34" height="24" fill="#2a9d8f" stroke="#ffffff" stroke-width="1" />
<rect x="248" y="247" width="34" height="24" fill="#2a9d8f" stroke="#ffffff" stroke-width="1" />
<rect x="282" y="247" width="34" height="24" fill="#2a9d8f" stroke="#ffffff" stroke-width="1" />
<rect x="316" y="247" width="34" height="24" fill="#2a9d8f" stroke="#ffffff" stroke-width="1" />
<rect x="350" y="247" width="34" height="24" fill="#2a9d8f" stroke="#ffffff" stroke-width="1" />
<rect x="384" y="247" width="34" height="24" fill="#2a9d8f" stroke="#ffffff" stroke-width="1" />
<rect x="418" y="247" width="34" height="24" fill="#2a9d8f" stroke="#ffffff" stroke-width="1" />
<rect x="452" y="247" width="34" height="24" fill="#2a9d8f" stroke="#ffffff" stroke-width="1" />
<rect x="180" y="319" width="34" height="24" fill="#e9c46a" stroke="#ffffff" stroke-width="1" />
<rect x="214" y="319" width="34" height="24" fill="#e9c46a" stroke="#ffffff" stroke-width="1" />
<rect x="248" y="319" width="34" height="24" fill="#2a9d8f" stroke="#ffffff" stroke-width="1" />
<rect x="282" y="319" width="34" height="24" fill="#2a9d8f" stroke="#ffffff" stroke-width="1" />
<rect x="316" y="319" width="34" height="24" fill="#2a9d8f" stroke="#ffffff" stroke-width="1" />
<rect x="350" y="319" width="34" height="24" fill="#2a9d8f" stroke="#ffffff" stroke-width="1" />
<rect x="384" y="319" width="34" height="24" fill="#2a9d8f" stroke="#ffffff" stroke-width="1" />
<rect x="418" y="319" width="34" height="24" fill="#2a9d8f" stroke="#ffffff" stroke-width="1" />
<rect x="452" y="319" width="34" height="24" fill="#2a9d8f" stroke="#ffffff" stroke-width="1" />
<rect x="180" y="391" width="34" height="24" fill="#e9c46a" stroke="#ffffff" stroke-width="1" />
<rect x="214" y="391" width="34" height="24" fill="#e9c46a" stroke="#ffffff" stroke-width="1" />
<rect x="248" y="391" width="34" height="24" fill="#2a9d8f" stroke="#ffffff" stroke-width="1" />
<rect x="282" y="391" width="34" height="24" fill="#2a9d8f" stroke="#ffffff" stroke-width="1" />
<rect x="316" y="391" width="34" height="24" fill="#2a9d8f" stroke="#ffffff" stroke-width="1" />
<rect x="350" y="391" width="34" height="24" fill="#2a9d8f" stroke="#ffffff" stroke-width="1" />
<rect x="384" y="391" width="34" height="24" fill="#2a9d8f" stroke="#ffffff" stroke-width="1" />
<rect x="418" y="391" width="34" height="24" fill="#2a9d8f" stroke="#ffffff" stroke-width="1" />
<rect x="452" y="391" width="34" height="24" fill="#2a9d8f" stroke="#ffffff" stroke-width="1" />
<rect x="486" y="391" width="34" height="24" fill="#2a9d8f" stroke="#ffffff" stroke-width="1" />
<rect x="180" y="463" width="34" height="24" fill="#e9c46a" stroke="#ffffff" stroke-width="1" />
<rect x="214" y="463" width="34" height="24" fill="#e9c46a" stroke="#ffffff" stroke-width="1" />
<rect x="248" y="463" width="34" height="24" fill="#2a9d8f" stroke="#ffffff" stroke-width="1" />
<rect x="282" y="463" width="34" height="24" fill="#2a9d8f" stroke="#ffffff" stroke-width="1" />
<rect x="316" y="463" width="34" height="24" fill="#2a9d8f" stroke="#ffffff" stroke-width="1" />
<rect x="350" y="463" width="34" height="24" fill="#2a9d8f" stroke="#ffffff" stroke-width="1" />
<rect x="384" y="463" width="34" height="24" fill="#2a9d8f" stroke="#ffffff" stroke-width="1" />
<rect x="418" y="463" width="34" height="24" fill="#2a9d8f" stroke="#ffffff" stroke-width="1" />
<rect x="452" y="463" width="34" height="24" fill="#2a9d8f" stroke="#ffffff" stroke-width="1" />
<rect x="486" y="463" width="34" height="24" fill="#2a9d8f" stroke="#ffffff" stroke-width="1" />
<rect x="180" y="199" width="34" height="24" fill="#e9c46a" stroke="#ffffff" stroke-width="1" />
<rect x="214" y="199" width="34" height="24" fill="#e9c46a" stroke="#ffffff" stroke-width="1" />
<rect x="248" y="199" width="34" height="24" fill="#2a9d8f" stroke="#ffffff" stroke-width="1" />
<rect x="282" y="199" width="34" height="24" fill="#2a9d8f" stroke="#ffffff" stroke-width="1" />
<rect x="316" y="199" width="34" height="24" fill="#2a9d8f" stroke="#ffffff" stroke-width="1" />
<rect x="350" y="199" width="34" height="24" fill="#2a9d8f" stroke="#ffffff" stroke-width="1" />
<rect x="384" y="199" width="34" height="24" fill="#2a9d8f" stroke="#ffffff" stroke-width="1" />
<rect x="418" y="199" width="34" height="24" fill="#2a9d8f" stroke="#ffffff" stroke-width="1" />
<rect x="452" y="199" width="34" height="24" fill="#2a9d8f" stroke="#ffffff" stroke-width="1" />
<rect x="180" y="271" width="34" height="24" fill="#e9c46a" stroke="#ffffff" stroke-width="1" />
<rect x="214" y="271" width="34" height="24" fill="#e9c46a" stroke="#ffffff" stroke-width="1" />
<rect x="248" y="271" width="34" height="24" fill="#2a9d8f" stroke="#ffffff" stroke-width="1" />
<rect x="282" y="271" width="34" height="24" fill="#2a9d8f" stroke="#ffffff" stroke-width="1" />
<rect x="316" y="271" width="34" height="24" fill="#2a9d8f" stroke="#ffffff" stroke-width="1" />
<rect x="350" y="271" width="34" height="24" fill="#2a9d8f" stroke="#ffffff" stroke-width="1" />
<rect x="384" y="271" width="34" height="24" fill="#2a9d8f" stroke="#ffffff" stroke-width="1" />
<rect x="418" y="271" width="34" height="24" fill="#2a9d8f" stroke="#ffffff" stroke-width="1" />
<rect x="452" y="271" width="34" height="24" fill="#2a9d8f" stroke="#ffffff" stroke-width="1" />
<rect x="486" y="271" width="34" height="24" fill="#2a9d8f" stroke="#ffffff" stroke-width="1" />
<rect x="180" y="343" width="34" height="24" fill="#e9c46a" stroke="#ffffff" stroke-width="1" />
<rect x="214" y="343" width="34" height="24" fill="#e9c46a" stroke="#ffffff" stroke-width="1" />
<rect x="248" y="343" width="34" height="24" fill="#2a9d8f" stroke="#ffffff" stroke-width="1" />
<rect x="282" y="343" width="34" height="24" fill="#2a9d8f" stroke="#ffffff" stroke-width="1" />
<rect x="316" y="343" width="34" height="24" fill="#2a9d8f" stroke="#ffffff" stroke-width="1" />
<rect x="350" y="343" width="34" height="24" fill="#2a9d8f" stroke="#ffffff" stroke-width="1" />
<rect x="384" y="343" width="34" height="24" fill="#2a9d8f" stroke="#ffffff" stroke-width="1" />
<rect x="418" y="343" width="34" height="24" fill="#2a9d8f" stroke="#ffffff" stroke-width="1" />
<rect x="452" y="343" width="34" height="24" fill="#2a9d8f" stroke="#ffffff" stroke-width="1" />
<rect x="486" y="343" width="34" height="24" fill="#2a9d8f" stroke="#ffffff" stroke-width="1" />
<rect x="520" y="343" width="34" height="24" fill="#2a9d8f" stroke="#ffffff" stroke-width="1" />
<rect x="180" y="415" width="34" height="24" fill="#e9c46a" stroke="#ffffff" stroke-width="1" />
<rect x="214" y="415" width="34" height="24" fill="#e9c46a" stroke="#ffffff" stroke-width="1" />
<rect x="248" y="415" width="34" height="24" fill="#2a9d8f" stroke="#ffffff" stroke-width="1" />
<rect x="282" y="415" width="34" height="24" fill="#2a9d8f" stroke="#ffffff" stroke-width="1" />
<rect x="316" y="415" width="34" height="24" fill="#2a9d8f" stroke="#ffffff" stroke-width="1" />
<rect x="350" y="415" width="34" height="24" fill="#2a9d8f" stroke="#ffffff" stroke-width="1" />
<rect x="384" y="415" width="34" height="24" fill="#2a9d8f" stroke="#ffffff" stroke-width="1" />
<rect x="418" y="415" width="34" height="24" fill="#2a9d8f" stroke="#ffffff" stroke-width="1" />
<rect x="452" y="415" width="34" height="24" fill="#2a9d8f" stroke="#ffffff" stroke-width="1" />
<rect x="486" y="415" width="34" height="24" fill="#2a9d8f" stroke="#ffffff" stroke-width="1" />
<rect x="520" y="415" width="34" height="24" fill="#2a9d8f" stroke="#ffffff" stroke-width="1" />
<rect x="554" y="415" width="34" height="24" fill="#2a9d8f" stroke="#ffffff" stroke-width="1" />
<rect x="180" y="487" width="34" height="24" fill="#e9c46a" stroke="#ffffff" stroke-width="1" />
<rect x="214" y="487" width="34" height="24" fill="#e9c46a" stroke="#ffffff" stroke-width="1" />
<rect x="248" y="487" width="34" height="24" fill="#e9c46a" stroke="#ffffff" stroke-width="1" />
<rect x="282" y="487" width="34" height="24" fill="#2a9d8f" stroke="#ffffff" stroke-width="1" />
<rect x="316" y="487" width="34" height="24" fill="#2a9d8f" stroke="#ffffff" stroke-width="1" />
<rect x="350" y="487" width="34" height="24" fill="#2a9d8f" stroke="#ffffff" stroke-width="1" />
<rect x="384" y="487" width="34" height="24" fill="#2a9d8f" stroke="#ffffff" stroke-width="1" />
<rect x="418" y="487" width="34" height="24" fill="#2a9d8f" stroke="#ffffff" stroke-width="1" />
<rect x="452" y="487" width="34" height="24" fill="#2a9d8f" stroke="#ffffff" stroke-width="1" />
<rect x="486" y="487" width="34" height="24" fill="#2a9d8f" stroke="#ffffff" stroke-width="1" />
<rect x="520" y="487" width="34" height="24" fill="#2a9d8f" stroke="#ffffff" stroke-width="1" />
<rect x="554" y="487" width="34" height="24" fill="#2a9d8f" stroke="#ffffff" stroke-width="1" />
<rect x="588" y="487" width="34" height="24" fill="#2a9d8f" stroke="#ffffff" stroke-width="1" />
<rect x="180" y="223" width="34" height="24" fill="#e9c46a" stroke="#ffffff" stroke-width="1" />
<rect x="214" y="223" width="34" height="24" fill="#e9c46a" stroke="#ffffff" stroke-width="1" />
<rect x="248" y="223" width="34" height="24" fill="#e9c46a" stroke="#ffffff" stroke-width="1" />
<rect x="282" y="223" width="34" height="24" fill="#2a9d8f" stroke="#ffffff" stroke-width="1" />
<rect x="316" y="223" width="34" height="24" fill="#2a9d8f" stroke="#ffffff" stroke-width="1" />
<rect x="350" y="223" width="34" height="24" fill="#2a9d8f" stroke="#ffffff" stroke-width="1" />
<rect x="384" y="223" width="34" height="24" fill="#2a9d8f" stroke="#ffffff" stroke-width="1" />
<rect x="418" y="223" width="34" height="24" fill="#2a9d8f" stroke="#ffffff" stroke-width="1" />
<rect x="452" y="223" width="34" height="24" fill="#2a9d8f" stroke="#ffffff" stroke-width="1" />
<rect x="486" y="223" width="34" height="24" fill="#2a9d8f" stroke="#ffffff" stroke-width="1" />
<rect x="520" y="223" width="34" height="24" fill="#2a9d8f" stroke="#ffffff" stroke-width="1" />
<rect x="180" y="295" width="34" height="24" fill="#e9c46a" stroke="#ffffff" stroke-width="1" />
<rect x="214" y="295" width="34" height="24" fill="#e9c46a" stroke="#ffffff" stroke-width="1" />
<rect x="248" y="295" width="34" height="24" fill="#e9c46a" stroke="#ffffff" stroke-width="1" />
<rect x="282" y="295" width="34" height="24" fill="#2a9d8f" stroke="#ffffff" stroke-width="1" />
<rect x="316" y="295" width="34" height="24" fill="#2a9d8f" stroke="#ffffff" stroke-width="1" />
<rect x="350" y="295" width="34" height="24" fill="#2a9d8f" stroke="#ffffff" stroke-width="1" />
<rect x="384" y="295" width="34" height="24" fill="#2a9d8f" stroke="#ffffff" stroke-width="1" />
<rect x="418" y="295" width="34" height="24" fill="#2a9d8f" stroke="#ffffff" stroke-width="1" />
<rect x="452" y="295" width="34" height="24" fill="#2a9d8f" stroke="#ffffff" stroke-width="1" />
<rect x="486" y="295" width="34" height="24" fill="#2a9d8f" stroke="#ffffff" stroke-width="1" />
<rect x="520" y="295" width="34" height="24" fill="#2a9d8f" stroke="#ffffff" stroke-width="1" />
<rect x="554" y="295" width="34" height="24" fill="#2a9d8f" stroke="#ffffff" stroke-width="1" />
<rect x="180" y="367" width="34" height="24" fill="#e9c46a" stroke="#ffffff" stroke-width="1" />
<rect x="214" y="367" width="34" height="24" fill="#e9c46a" stroke="#ffffff" stroke-width="1" />
<rect x="248" y="367" width="34" height="24" fill="#e9c46a" stroke="#ffffff" stroke-width="1" />
<rect x="282" y="367" width="34" height="24" fill="#2a9d8f" stroke="#ffffff" stroke-width="1" />
<rect x="316" y="367" width="34" height="24" fill="#2a9d8f" stroke="#ffffff" stroke-width="1" />
<rect x="350" y="367" width="34" height="24" fill="#2a9d8f" stroke="#ffffff" stroke-width="1" />
<rect x="384" y="367" width="34" height="24" fill="#2a9d8f" stroke="#ffffff" stroke-width="1" />
<rect x="418" y="367" width="34" height="24" fill="#2a9d8f" stroke="#ffffff" stroke-width="1" />
<rect x="452" y="367" width="34" height="24" fill="#2a9d8f" stroke="#ffffff" stroke-width="1" />
<rect x="486" y="367" width="34" height="24" fill="#2a9d8f" stroke="#ffffff" stroke-width="1" />
<rect x="520" y="367" width="34" height="24" fill="#2a9d8f" stroke="#ffffff" stroke-width="1" />
<rect x="554" y="367" width="34" height="24" fill="#2a9d8f" stroke="#ffffff" stroke-width="1" />
<rect x="588" y="367" width="34" height="24" fill="#2a9d8f" stroke="#ffffff" stroke-width="1" />
<rect x="180" y="439" width="34" height="24" fill="#e9c46a" stroke="#ffffff" stroke-width="1" />
<rect x="214" y="439" width="34" height="24" fill="#e9c46a" stroke="#ffffff" stroke-width="1" />
<rect x="248" y="439" width="34" height="24" fill="#e9c46a" stroke="#ffffff" stroke-width="1" />
<rect x="282" y="439" width="34" height="24" fill="#2a9d8f" stroke="#ffffff" stroke-width="1" />
<rect x="316" y="439" width="34" height="24" fill="#2a9d8f" stroke="#ffffff" stroke-width="1" />
<rect x="350" y="439" width="34" height="24" fill="#2a9d8f" stroke="#ffffff" stroke-width="1" />
<rect x="384" y="439" width="34" height="24" fill="#2a9d8f" stroke="#ffffff" stroke-width="1" />
<rect x="418" y="439" width="34" height="24" fill="#2a9d8f" stroke="#ffffff" stroke-width="1" />
<rect x="452" y="439" width="34" height="24" fill="#2a9d8f" stroke="#ffffff" stroke-width="1" />
<rect x="486" y="439" width="34" height="24" fill="#2a9d8f" stroke="#ffffff" stroke-width="1" />
<rect x="520" y="439" width="34" height="24" fill="#2a9d8f" stroke="#ffffff" stroke-width="1" />
<rect x="554" y="439" width="34" height="24" fill="#2a9d8f" stroke="#ffffff" stroke-width="1" />
<rect x="588" y="439" width="34" height="24" fill="#2a9d8f" stroke="#ffffff" stroke-width="1" />
<rect x="622" y="439" width="34" height="24" fill="#2a9d8f" stroke="#ffffff" stroke-width="1" />
<rect x="180" y="511" width="34" height="24" fill="#e9c46a" stroke="#ffffff" stroke-width="1" />
<rect x="214" y="511" width="34" height="24" fill="#e9c46a" stroke="#ffffff" stroke-width="1" />
<rect x="248" y="511" width="34" height="24" fill="#e9c46a" stroke="#ffffff" stroke-width="1" />
<rect x="282" y="511" width="34" height="24" fill="#2a9d8f" stroke="#ffffff" stroke-width="1" />
<rect x="316" y="511" width="34" height="24" fill="#2a9d8f" stroke="#ffffff" stroke-width="1" />
<rect x="350" y="511" width="34" height="24" fill="#2a9d8f" stroke="#ffffff" stroke-width="1" />
<rect x="384" y="511" width="34" height="24" fill="#2a9d8f" stroke="#ffffff" stroke-width="1" />
<rect x="418" y="511" width="34" height="24" fill="#2a9d8f" stroke="#ffffff" stroke-width="1" />
<rect x="452" y="511" width="34" height="24" fill="#2a9d8f" stroke="#ffffff" stroke-width="1" />
<rect x="486" y="511" width="34" height="24" fill="#2a9d8f" stroke="#ffffff" stroke-width="1" />
<rect x="520" y="511" width="34" height="24" fill="#2a9d8f" stroke="#ffffff" stroke-width="1" />
<rect x="554" y="511" width="34" height="24" fill="#2a9d8f" stroke="#ffffff" stroke-width="1" />
<rect x="588" y="511" width="34" height="24" fill="#2a9d8f" stroke="#ffffff" stroke-width="1" />
<rect x="622" y="511" width="34" height="24" fill="#2a9d8f" stroke="#ffffff" stroke-width="1" />
<rect x="656" y="511" width="34" height="24" fill="#2a9d8f" stroke="#ffffff" stroke-width="1" />
<rect x="180" y="535" width="34" height="24" fill="#e9c46a" stroke="#ffffff" stroke-width="1" />
<rect x="214" y="535" width="34" height="24" fill="#e9c46a" stroke="#ffffff" stroke-width="1" />
<rect x="248" y="535" width="34" height="24" fill="#e9c46a" stroke="#ffffff" stroke-width="1" />
<rect x="282" y="535" width="34" height="24" fill="#2a9d8f" stroke="#ffffff" stroke-width="1" />
<rect x="316" y="535" width="34" height="24" fill="#2a9d8f" stroke="#ffffff" stroke-width="1" />
<rect x="350" y="535" width="34" height="24" fill="#2a9d8f" stroke="#ffffff" stroke-width="1" />
<rect x="384" y="535" width="34" height="24" fill="#2a9d8f" stroke="#ffffff" stroke-width="1" />
<rect x="418" y="535" width="34" height="24" fill="#2a9d8f" stroke="#ffffff" stroke-width="1" />
<rect x="452" y="535" width="34" height="24" fill="#2a9d8f" stroke="#ffffff" stroke-width="1" />
<line class="tick" x1="258.9455552261703" y1="57" x2="258.9455552261703" y2="77" />
<line class="tick" x1="287.77745004903863" y1="81" x2="287.77745004903863" y2="101" />
<line class="tick" x1="309.45006734995854" y1="105" x2="309.45006734995854" y2="125" />
<line class="tick" x1="326.9455552261703" y1="129" x2="326.9455552261703" y2="149" />
<line class="tick" x1="341.66617507355795" y1="153" x2="341.66617507355795" y2="173" />
<line class="tick" x1="258.9455552261703" y1="177" x2="258.9455552261703" y2="197" />
<line class="tick" x1="305.81495041679716" y1="201" x2="305.81495041679716" y2="221" />
<line class="tick" x1="354.39562257612886" y1="225" x2="354.39562257612886" y2="245" />
<line class="tick" x1="287.77745004903863" y1="249" x2="287.77745004903863" y2="269" />
<line class="tick" x1="345.1713538343374" y1="273" x2="345.1713538343374" y2="293" />
<line class="tick" x1="405.3981250827067" y1="297" x2="405.3981250827067" y2="317" />
<line class="tick" x1="309.45006734995854" y1="321" x2="309.45006734995854" y2="341" />
<line class="tick" x1="375.66617507355795" y1="345" x2="375.66617507355795" y2="365" />
<line class="tick" x1="445.45006734995854" y1="369" x2="445.45006734995854" y2="389" />
<line class="tick" x1="326.9455552261703" y1="393" x2="326.9455552261703" y2="413" />
<line class="tick" x1="400.72300527520895" y1="417" x2="400.72300527520895" y2="437" />
<line class="tick" x1="478.56623025983845" y1="441" x2="478.56623025983845" y2="461" />
<line class="tick" x1="341.66617507355795" y1="465" x2="341.66617507355795" y2="485" />
<line class="tick" x1="422.04399647259925" y1="489" x2="422.04399647259925" y2="509" />
<line class="tick" x1="506.8375289078954" y1="513" x2="506.8375289078954" y2="533" />
<line class="tick" x1="312.83428025068963" y1="537" x2="312.83428025068963" y2="557" />
<rect x="12" y="581" width="16" height="16" fill="#2a9d8f" stroke="#ffffff" stroke-width="1" />
<text x="34" y="593">sound</text>
<rect x="108" y="581" width="16" height="16" fill="#e9c46a" stroke="#ffffff" stroke-width="1" />
<text x="130" y="593">breach</text>
<rect x="204" y="581" width="16" height="16" fill="#e76f51" stroke="#ffffff" stroke-width="1" />
<text x="226" y="593">mirage</text>
<rect x="300" y="581" width="16" height="16" fill="#8d99ae" stroke="#ffffff" stroke-width="1" />
<text x="322" y="593">collapse</text>
</svg>