<svg xmlns="http://www.w3.org/2000/svg" width="1240" height="720" viewBox="0 0 1240 720">
<style>
text { font-family: "Helvetica Neue", Helvetica, Arial, sans-serif; font-size: 12px; fill: #243b53; }
.title { font-size: 22px; font-weight: 700; fill: #102a43; }
.subtitle { font-size: 13px; fill: #52606d; }
.paneltitle { font-size: 15px; font-weight: 700; fill: #102a43; }
.panel { fill: #ffffff; stroke: #d9e2ec; stroke-width: 1; }
.grid { stroke: #e5e7eb; stroke-width: 1; stroke-dasharray: 3 6; }
.axis { stroke: #9fb3c8; stroke-width: 1.2; }
</style>
<rect x="0" y="0" width="1240" height="720" fill="#fbfbfd"/>
<text x="86" y="34" class="title">Runtime Collapse Boundary</text>
<text x="86" y="56" class="subtitle">Binary completion stays coordinate-exact on the scanned arbitrary-antichain grid; the first break appears only after semantic enrichment.</text>
<rect x="86" y="84" width="531.0" height="536" rx="18" ry="18" class="panel"/>
<text x="98" y="68" class="paneltitle">Current semantics: collapse holds</text>
<text x="98" y="82" class="subtitle">family bits versus answer-bit ranges on the scanned exact classes</text>
<line x1="86" y1="600.00" x2="617.0" y2="600.00" class="grid"/>
<text x="56" y="604.00">0</text>
<line x1="86" y1="515.67" x2="617.0" y2="515.67" class="grid"/>
<text x="56" y="519.67">1</text>
<line x1="86" y1="431.35" x2="617.0" y2="431.35" class="grid"/>
<text x="56" y="435.35">2</text>
<line x1="86" y1="347.02" x2="617.0" y2="347.02" class="grid"/>
<text x="56" y="351.02">3</text>
<line x1="86" y1="262.69" x2="617.0" y2="262.69" class="grid"/>
<text x="56" y="266.69">4</text>
<line x1="86" y1="178.36" x2="617.0" y2="178.36" class="grid"/>
<text x="56" y="182.36">5</text>
<line x1="86" y1="94.04" x2="617.0" y2="94.04" class="grid"/>
<text x="56" y="98.04">6</text>
<line x1="86" y1="620" x2="617.0" y2="620" class="axis"/>
<line x1="86" y1="84" x2="86" y2="620" class="axis"/>
<text x="337.50" y="696" class="subtitle">(p, k)</text>
<text x="28" y="106" class="subtitle">bits</text>
<line x1="108.00" y1="466.34" x2="108.00" y2="466.34" stroke="#c44536" stroke-width="7" stroke-linecap="round"/>
<circle cx="108.00" cy="404.20" r="6.5" fill="#0b6e4f" stroke="#ffffff" stroke-width="1.5"/>
<text x="96.00" y="638">(2,1)</text>
<text x="90.00" y="106" class="subtitle">1</text>
<line x1="156.70" y1="382.02" x2="156.70" y2="382.02" stroke="#c44536" stroke-width="7" stroke-linecap="round"/>
<circle cx="156.70" cy="382.02" r="6.5" fill="#0b6e4f" stroke="#ffffff" stroke-width="1.5"/>
<text x="144.70" y="638">(2,2)</text>
<text x="138.70" y="106" class="subtitle">1</text>
<line x1="205.40" y1="466.34" x2="205.40" y2="466.34" stroke="#c44536" stroke-width="7" stroke-linecap="round"/>
<circle cx="205.40" cy="332.69" r="6.5" fill="#0b6e4f" stroke="#ffffff" stroke-width="1.5"/>
<text x="193.40" y="638">(3,1)</text>
<text x="187.40" y="106" class="subtitle">1</text>
<line x1="254.10" y1="363.26" x2="254.10" y2="382.02" stroke="#c44536" stroke-width="7" stroke-linecap="round"/>
<circle cx="254.10" cy="319.87" r="6.5" fill="#0b6e4f" stroke="#ffffff" stroke-width="1.5"/>
<text x="242.10" y="638">(3,2)</text>
<text x="236.10" y="106" class="subtitle">7</text>
<line x1="302.80" y1="308.28" x2="302.80" y2="308.28" stroke="#c44536" stroke-width="7" stroke-linecap="round"/>
<circle cx="302.80" cy="308.28" r="6.5" fill="#0b6e4f" stroke="#ffffff" stroke-width="1.5"/>
<text x="290.80" y="638">(3,3)</text>
<text x="284.80" y="106" class="subtitle">1</text>
<line x1="351.50" y1="466.34" x2="351.50" y2="466.34" stroke="#c44536" stroke-width="7" stroke-linecap="round"/>
<circle cx="351.50" cy="255.32" r="6.5" fill="#0b6e4f" stroke="#ffffff" stroke-width="1.5"/>
<text x="339.50" y="638">(4,1)</text>
<text x="333.50" y="106" class="subtitle">1</text>
<line x1="400.20" y1="297.69" x2="400.20" y2="382.02" stroke="#c44536" stroke-width="7" stroke-linecap="round"/>
<circle cx="400.20" cy="248.36" r="6.5" fill="#0b6e4f" stroke="#ffffff" stroke-width="1.5"/>
<text x="388.20" y="638">(4,2)</text>
<text x="382.20" y="106" class="subtitle">63</text>
<line x1="448.90" y1="270.54" x2="448.90" y2="308.28" stroke="#c44536" stroke-width="7" stroke-linecap="round"/>
<circle cx="448.90" cy="241.78" r="6.5" fill="#0b6e4f" stroke="#ffffff" stroke-width="1.5"/>
<text x="436.90" y="638">(4,3)</text>
<text x="430.90" y="106" class="subtitle">49</text>
<line x1="497.60" y1="466.34" x2="497.60" y2="466.34" stroke="#c44536" stroke-width="7" stroke-linecap="round"/>
<circle cx="497.60" cy="174.62" r="6.5" fill="#0b6e4f" stroke="#ffffff" stroke-width="1.5"/>
<text x="485.60" y="638">(5,1)</text>
<text x="479.60" y="106" class="subtitle">1</text>
<line x1="546.30" y1="270.54" x2="546.30" y2="382.02" stroke="#c44536" stroke-width="7" stroke-linecap="round"/>
<circle cx="546.30" cy="170.99" r="6.5" fill="#0b6e4f" stroke="#ffffff" stroke-width="1.5"/>
<text x="534.30" y="638">(5,2)</text>
<text x="528.30" y="106" class="subtitle">1023</text>
<line x1="595.00" y1="203.62" x2="595.00" y2="308.28" stroke="#c44536" stroke-width="7" stroke-linecap="round"/>
<circle cx="595.00" cy="167.46" r="6.5" fill="#0b6e4f" stroke="#ffffff" stroke-width="1.5"/>
<text x="583.00" y="638">(5,3)</text>
<text x="577.00" y="106" class="subtitle">5188</text>
<circle cx="441.0" cy="106" r="5.5" fill="#0b6e4f"/>
<text x="455.0" y="110">family bits</text>
<line x1="434.0" y1="126" x2="448.0" y2="126" stroke="#c44536" stroke-width="7" stroke-linecap="round"/>
<text x="455.0" y="130">answer bit range</text>
<text x="437.0" y="150" class="subtitle">labels above bars are exact antichain counts</text>
<rect x="653.0" y="84" width="531.0" height="536" rx="18" ry="18" class="panel"/>
<text x="665.0" y="68" class="paneltitle">First semantic break</text>
<text x="665.0" y="82" class="subtitle">smallest exact counterexample after enriching the readout</text>
<rect x="671.0" y="102" width="495.0" height="128" rx="14" ry="14" fill="#f8fbff" stroke="#d9e2ec" stroke-width="1"/>
<text x="687.0" y="128" class="paneltitle">Additive partial activation</text>
<text x="687.0" y="150">smallest hit: (p=2, k=2)</text>
<text x="687.0" y="170">family: ((1, 2),)</text>
<text x="687.0" y="190">thresholds: {'1,2': 2}</text>
<text x="687.0" y="210">shared old summary: {'depth': 0, 'completed_variables': []}</text>
<rect x="671.0" y="248" width="495.0" height="170" rx="14" ry="14" fill="#ffffff" stroke="#d9e2ec" stroke-width="1"/>
<text x="687.0" y="274" class="paneltitle">Witness states</text>
<text x="687.0" y="298">s = (0, (-1, -1))</text>
<text x="687.0" y="318">t = (0, (-1, 0))</text>
<text x="687.0" y="338">r = (0, (0, -1))</text>
<text x="687.0" y="366">now(s) = ()</text>
<text x="687.0" y="386">now(t) = ()</text>
<text x="687.0" y="414">future(s ∘ r) = ()</text>
<text x="687.0" y="434">future(t ∘ r) = ((1, 2),)</text>
<rect x="671.0" y="438" width="495.0" height="112" rx="14" ry="14" fill="#fff5f5" stroke="#f2b8b5" stroke-width="1.4"/>
<text x="687.0" y="466" class="paneltitle">Interpretation</text>
<text x="687.0" y="490">The current collapse boundary is semantic, not combinatorial.</text>
<text x="687.0" y="510">Arbitrary antichains do not break it. Partial progress does.</text>
<text x="687.0" y="530">The first break is coordinate-level; overlap is not needed yet.</text>
<text x="687.0" y="550">break type: coordinate_level_not_hypergraph_specific</text>
</svg>