<svg xmlns="http://www.w3.org/2000/svg" width="1180" height="680" viewBox="0 0 1180 680">
<style>
text { font-family: Menlo, Monaco, Consolas, monospace; font-size: 11px; fill: #1f2933; }
.title { font-size: 14px; font-weight: 700; }
.panel { fill: #ffffff; stroke: #d9e2ec; stroke-width: 1; }
.grid { stroke: #d9e2ec; stroke-width: 1; stroke-dasharray: 4 4; }
.axis { stroke: #9fb3c8; stroke-width: 1; }
</style>
<rect x="0" y="0" width="1180" height="680" fill="#fbfbfd"/>
<text x="88" y="24" class="title">Runtime Collapse Boundary</text>
<rect x="88" y="58" width="499.0" height="530" class="panel"/>
<text x="98" y="48" class="title">Current Semantics: Collapse Holds</text>
<line x1="88" y1="568.00" x2="587.0" y2="568.00" class="grid"/>
<text x="58" y="572.00">0</text>
<line x1="88" y1="484.68" x2="587.0" y2="484.68" class="grid"/>
<text x="58" y="488.68">1</text>
<line x1="88" y1="401.37" x2="587.0" y2="401.37" class="grid"/>
<text x="58" y="405.37">2</text>
<line x1="88" y1="318.05" x2="587.0" y2="318.05" class="grid"/>
<text x="58" y="322.05">3</text>
<line x1="88" y1="234.74" x2="587.0" y2="234.74" class="grid"/>
<text x="58" y="238.74">4</text>
<line x1="88" y1="151.42" x2="587.0" y2="151.42" class="grid"/>
<text x="58" y="155.42">5</text>
<line x1="88" y1="68.11" x2="587.0" y2="68.11" class="grid"/>
<text x="58" y="72.11">6</text>
<line x1="88" y1="588" x2="587.0" y2="588" class="axis"/>
<line x1="88" y1="58" x2="88" y2="588" class="axis"/>
<line x1="110.00" y1="435.95" x2="110.00" y2="435.95" stroke="#c44536" stroke-width="6"/>
<circle cx="110.00" cy="374.55" r="6" fill="#0b6e4f"/>
<text x="98.00" y="606">(2,1)</text>
<text x="94.00" y="78">1</text>
<line x1="155.50" y1="352.63" x2="155.50" y2="352.63" stroke="#c44536" stroke-width="6"/>
<circle cx="155.50" cy="352.63" r="6" fill="#0b6e4f"/>
<text x="143.50" y="606">(2,2)</text>
<text x="139.50" y="78">1</text>
<line x1="201.00" y1="435.95" x2="201.00" y2="435.95" stroke="#c44536" stroke-width="6"/>
<circle cx="201.00" cy="303.90" r="6" fill="#0b6e4f"/>
<text x="189.00" y="606">(3,1)</text>
<text x="185.00" y="78">1</text>
<line x1="246.50" y1="334.10" x2="246.50" y2="352.63" stroke="#c44536" stroke-width="6"/>
<circle cx="246.50" cy="291.23" r="6" fill="#0b6e4f"/>
<text x="234.50" y="606">(3,2)</text>
<text x="230.50" y="78">7</text>
<line x1="292.00" y1="279.78" x2="292.00" y2="279.78" stroke="#c44536" stroke-width="6"/>
<circle cx="292.00" cy="279.78" r="6" fill="#0b6e4f"/>
<text x="280.00" y="606">(3,3)</text>
<text x="276.00" y="78">1</text>
<line x1="337.50" y1="435.95" x2="337.50" y2="435.95" stroke="#c44536" stroke-width="6"/>
<circle cx="337.50" cy="227.45" r="6" fill="#0b6e4f"/>
<text x="325.50" y="606">(4,1)</text>
<text x="321.50" y="78">1</text>
<line x1="383.00" y1="269.32" x2="383.00" y2="352.63" stroke="#c44536" stroke-width="6"/>
<circle cx="383.00" cy="220.58" r="6" fill="#0b6e4f"/>
<text x="371.00" y="606">(4,2)</text>
<text x="367.00" y="78">63</text>
<line x1="428.50" y1="242.50" x2="428.50" y2="279.78" stroke="#c44536" stroke-width="6"/>
<circle cx="428.50" cy="214.08" r="6" fill="#0b6e4f"/>
<text x="416.50" y="606">(4,3)</text>
<text x="412.50" y="78">49</text>
<line x1="474.00" y1="435.95" x2="474.00" y2="435.95" stroke="#c44536" stroke-width="6"/>
<circle cx="474.00" cy="147.72" r="6" fill="#0b6e4f"/>
<text x="462.00" y="606">(5,1)</text>
<text x="458.00" y="78">1</text>
<line x1="519.50" y1="242.50" x2="519.50" y2="352.63" stroke="#c44536" stroke-width="6"/>
<circle cx="519.50" cy="144.14" r="6" fill="#0b6e4f"/>
<text x="507.50" y="606">(5,2)</text>
<text x="503.50" y="78">1023</text>
<line x1="565.00" y1="176.38" x2="565.00" y2="279.78" stroke="#c44536" stroke-width="6"/>
<circle cx="565.00" cy="140.65" r="6" fill="#0b6e4f"/>
<text x="553.00" y="606">(5,3)</text>
<text x="549.00" y="78">5188</text>
<circle cx="437.0" cy="78" r="5" fill="#0b6e4f"/>
<text x="449.0" y="82">family bits</text>
<line x1="432.0" y1="96" x2="442.0" y2="96" stroke="#c44536" stroke-width="6"/>
<text x="449.0" y="100">answer bit range</text>
<text x="429.0" y="116">labels show exact antichain counts</text>
<rect x="633.0" y="58" width="499.0" height="530" class="panel"/>
<text x="643.0" y="48" class="title">First Semantic Break</text>
<text x="649.0" y="86">extension: additive partial activation</text>
<text x="649.0" y="104">smallest hit: (p=2, k=2)</text>
<text x="649.0" y="122">family = ((1, 2),)</text>
<text x="649.0" y="140">thresholds = {'1,2': 2}</text>
<text x="649.0" y="170">shared old summary = {'depth': 0, 'completed_variables': []}</text>
<text x="649.0" y="202">state s = (0, (-1, -1))</text>
<text x="649.0" y="220">state t = (0, (-1, 0))</text>
<text x="649.0" y="238">continuation r = (0, (0, -1))</text>
<text x="649.0" y="270">now(s) = ()</text>
<text x="649.0" y="288">now(t) = ()</text>
<text x="649.0" y="320">future(s ∘ r) = ()</text>
<text x="649.0" y="338">future(t ∘ r) = ((1, 2),)</text>
<text x="649.0" y="370">break type = coordinate_level_not_hypergraph_specific</text>
<rect x="649.0" y="394" width="467.0" height="90" fill="#fff4f4" stroke="#c44536" stroke-width="1.5"/>
<text x="661.0" y="418">The current collapse boundary is semantic, not combinatorial.</text>
<text x="661.0" y="436">Arbitrary antichains do not break it. Additive partial progress does.</text>
<text x="661.0" y="454">The first break is coordinate-level; overlap is not needed yet.</text>
</svg>