<svg xmlns="http://www.w3.org/2000/svg" width="1180" height="620" viewBox="0 0 1180 620">
<style>
text { font-family: Menlo, Monaco, Consolas, monospace; font-size: 11px; fill: #1f2933; }
.title { font-size: 14px; font-weight: 700; }
.panel { fill: #ffffff; stroke: #d9e2ec; stroke-width: 1; }
.grid { stroke: #d9e2ec; stroke-width: 1; stroke-dasharray: 4 4; }
.axis { stroke: #9fb3c8; stroke-width: 1; }
</style>
<rect x="0" y="0" width="1180" height="620" fill="#fbfbfd"/>
<text x="84" y="24" class="title">Teaching Complexity On Exact Antichain Classes</text>
<rect x="84" y="58" width="1054" height="474" class="panel"/>
<line x1="84" y1="512.00" x2="1138" y2="512.00" class="grid"/>
<text x="56" y="516.00">0</text>
<line x1="84" y1="495.15" x2="1138" y2="495.15" class="grid"/>
<text x="56" y="499.15">1</text>
<line x1="84" y1="478.31" x2="1138" y2="478.31" class="grid"/>
<text x="56" y="482.31">2</text>
<line x1="84" y1="461.46" x2="1138" y2="461.46" class="grid"/>
<text x="56" y="465.46">3</text>
<line x1="84" y1="444.62" x2="1138" y2="444.62" class="grid"/>
<text x="56" y="448.62">4</text>
<line x1="84" y1="427.77" x2="1138" y2="427.77" class="grid"/>
<text x="56" y="431.77">5</text>
<line x1="84" y1="410.92" x2="1138" y2="410.92" class="grid"/>
<text x="56" y="414.92">6</text>
<line x1="84" y1="394.08" x2="1138" y2="394.08" class="grid"/>
<text x="56" y="398.08">7</text>
<line x1="84" y1="377.23" x2="1138" y2="377.23" class="grid"/>
<text x="56" y="381.23">8</text>
<line x1="84" y1="360.38" x2="1138" y2="360.38" class="grid"/>
<text x="56" y="364.38">9</text>
<line x1="84" y1="343.54" x2="1138" y2="343.54" class="grid"/>
<text x="56" y="347.54">10</text>
<line x1="84" y1="326.69" x2="1138" y2="326.69" class="grid"/>
<text x="56" y="330.69">11</text>
<line x1="84" y1="309.85" x2="1138" y2="309.85" class="grid"/>
<text x="56" y="313.85">12</text>
<line x1="84" y1="293.00" x2="1138" y2="293.00" class="grid"/>
<text x="56" y="297.00">13</text>
<line x1="84" y1="276.15" x2="1138" y2="276.15" class="grid"/>
<text x="56" y="280.15">14</text>
<line x1="84" y1="259.31" x2="1138" y2="259.31" class="grid"/>
<text x="56" y="263.31">15</text>
<line x1="84" y1="242.46" x2="1138" y2="242.46" class="grid"/>
<text x="56" y="246.46">16</text>
<line x1="84" y1="225.62" x2="1138" y2="225.62" class="grid"/>
<text x="56" y="229.62">17</text>
<line x1="84" y1="208.77" x2="1138" y2="208.77" class="grid"/>
<text x="56" y="212.77">18</text>
<line x1="84" y1="191.92" x2="1138" y2="191.92" class="grid"/>
<text x="56" y="195.92">19</text>
<line x1="84" y1="175.08" x2="1138" y2="175.08" class="grid"/>
<text x="56" y="179.08">20</text>
<line x1="84" y1="158.23" x2="1138" y2="158.23" class="grid"/>
<text x="56" y="162.23">21</text>
<line x1="84" y1="141.38" x2="1138" y2="141.38" class="grid"/>
<text x="56" y="145.38">22</text>
<line x1="84" y1="124.54" x2="1138" y2="124.54" class="grid"/>
<text x="56" y="128.54">23</text>
<line x1="84" y1="107.69" x2="1138" y2="107.69" class="grid"/>
<text x="56" y="111.69">24</text>
<line x1="84" y1="90.85" x2="1138" y2="90.85" class="grid"/>
<text x="56" y="94.85">25</text>
<line x1="84" y1="74.00" x2="1138" y2="74.00" class="grid"/>
<text x="56" y="78.00">26</text>
<line x1="84" y1="532" x2="1138" y2="532" class="axis"/>
<line x1="84" y1="58" x2="84" y2="532" class="axis"/>
<rect x="104.00" y="512.00" width="8" height="20.00" fill="#c44536"/>
<rect x="114.00" y="512.00" width="8" height="20.00" fill="#22577a"/>
<rect x="124.00" y="512.00" width="8" height="20.00" fill="#0b6e4f"/>
<text x="98.00" y="550">(2,1)</text>
<rect x="196.18" y="512.00" width="8" height="20.00" fill="#c44536"/>
<rect x="206.18" y="512.00" width="8" height="20.00" fill="#22577a"/>
<rect x="216.18" y="512.00" width="8" height="20.00" fill="#0b6e4f"/>
<text x="190.18" y="550">(2,2)</text>
<rect x="288.36" y="512.00" width="8" height="20.00" fill="#c44536"/>
<rect x="298.36" y="512.00" width="8" height="20.00" fill="#22577a"/>
<rect x="308.36" y="512.00" width="8" height="20.00" fill="#0b6e4f"/>
<text x="282.36" y="550">(3,1)</text>
<rect x="380.55" y="410.92" width="8" height="121.08" fill="#c44536"/>
<rect x="390.55" y="461.46" width="8" height="70.54" fill="#22577a"/>
<rect x="400.55" y="495.15" width="8" height="36.85" fill="#0b6e4f"/>
<text x="374.55" y="550">(3,2)</text>
<rect x="472.73" y="512.00" width="8" height="20.00" fill="#c44536"/>
<rect x="482.73" y="512.00" width="8" height="20.00" fill="#22577a"/>
<rect x="492.73" y="512.00" width="8" height="20.00" fill="#0b6e4f"/>
<text x="466.73" y="550">(3,3)</text>
<rect x="564.91" y="512.00" width="8" height="20.00" fill="#c44536"/>
<rect x="574.91" y="512.00" width="8" height="20.00" fill="#22577a"/>
<rect x="584.91" y="512.00" width="8" height="20.00" fill="#0b6e4f"/>
<text x="558.91" y="550">(4,1)</text>
<rect x="657.09" y="343.54" width="8" height="188.46" fill="#c44536"/>
<rect x="667.09" y="410.92" width="8" height="121.08" fill="#22577a"/>
<rect x="677.09" y="495.15" width="8" height="36.85" fill="#0b6e4f"/>
<text x="651.09" y="550">(4,2)</text>
<rect x="749.27" y="276.15" width="8" height="255.85" fill="#c44536"/>
<rect x="759.27" y="394.08" width="8" height="137.92" fill="#22577a"/>
<rect x="769.27" y="495.15" width="8" height="36.85" fill="#0b6e4f"/>
<text x="743.27" y="550">(4,3)</text>
<rect x="841.45" y="512.00" width="8" height="20.00" fill="#c44536"/>
<rect x="851.45" y="512.00" width="8" height="20.00" fill="#22577a"/>
<rect x="861.45" y="512.00" width="8" height="20.00" fill="#0b6e4f"/>
<text x="835.45" y="550">(5,1)</text>
<rect x="933.64" y="259.31" width="8" height="272.69" fill="#c44536"/>
<rect x="943.64" y="343.54" width="8" height="188.46" fill="#22577a"/>
<rect x="953.64" y="495.15" width="8" height="36.85" fill="#0b6e4f"/>
<text x="927.64" y="550">(5,2)</text>
<rect x="1025.82" y="90.85" width="8" height="441.15" fill="#c44536"/>
<rect x="1035.82" y="175.08" width="8" height="356.92" fill="#22577a"/>
<rect x="1045.82" y="495.15" width="8" height="36.85" fill="#0b6e4f"/>
<text x="1019.82" y="550">(5,3)</text>
<rect x="968" y="70" width="8" height="8" fill="#c44536"/>
<text x="982" y="78">answer</text>
<rect x="968" y="86" width="8" height="8" fill="#22577a"/>
<text x="982" y="94">variable</text>
<rect x="968" y="102" width="8" height="8" fill="#0b6e4f"/>
<text x="982" y="110">family</text>
</svg>